<mxfile>
    <diagram id="-85gi8CYiEs3wvi6wQHJ" name="第 1 页">
        <mxGraphModel dx="788" dy="518" grid="1" gridSize="10" guides="1" tooltips="1" connect="1" arrows="1" fold="1" page="1" pageScale="1" pageWidth="827" pageHeight="1169" math="0" shadow="0">
            <root>
                <mxCell id="0"/>
                <mxCell id="1" parent="0"/>
                <mxCell id="2" value="&lt;font style=&quot;font-size: 19px&quot;&gt;class PersonService{&lt;br&gt;&amp;nbsp; &amp;nbsp; execute(){&lt;br&gt;&amp;nbsp; &amp;nbsp; &amp;nbsp; &amp;nbsp; PersonDao person = new Person();&lt;br&gt;&amp;nbsp; &amp;nbsp; &amp;nbsp; &amp;nbsp; person.add();&lt;br&gt;&amp;nbsp; &amp;nbsp; }&lt;br&gt;}&lt;/font&gt;" style="rounded=0;whiteSpace=wrap;html=1;align=left;" parent="1" vertex="1">
                    <mxGeometry x="30" y="90" width="350" height="160" as="geometry"/>
                </mxCell>
                <mxCell id="3" value="&lt;font style=&quot;font-size: 19px&quot;&gt;class PersonDao{&lt;br&gt;&amp;nbsp; &amp;nbsp; add(){&lt;br&gt;&amp;nbsp; &amp;nbsp; &amp;nbsp; &amp;nbsp; ......&lt;br&gt;&amp;nbsp; &amp;nbsp; }&lt;br&gt;}&lt;/font&gt;" style="rounded=0;whiteSpace=wrap;html=1;align=left;" parent="1" vertex="1">
                    <mxGeometry x="420" y="90" width="350" height="160" as="geometry"/>
                </mxCell>
                <mxCell id="4" value="&lt;font style=&quot;font-size: 15px&quot;&gt;原始方式创建对象，调用对象方法&lt;/font&gt;" style="text;html=1;align=center;verticalAlign=middle;resizable=0;points=[];autosize=1;strokeColor=none;" parent="1" vertex="1">
                    <mxGeometry x="30" y="50" width="240" height="20" as="geometry"/>
                </mxCell>
                <mxCell id="9" value="" style="edgeStyle=orthogonalEdgeStyle;rounded=0;orthogonalLoop=1;jettySize=auto;html=1;" parent="1" source="5" target="6" edge="1">
                    <mxGeometry relative="1" as="geometry"/>
                </mxCell>
                <mxCell id="5" value="&lt;span style=&quot;font-size: 15px&quot;&gt;工厂模式,降低PersonService和PersonDao之间的关系&lt;/span&gt;" style="text;html=1;align=center;verticalAlign=middle;resizable=0;points=[];autosize=1;strokeColor=none;" parent="1" vertex="1">
                    <mxGeometry x="30" y="320" width="370" height="20" as="geometry"/>
                </mxCell>
                <mxCell id="6" value="&lt;font style=&quot;font-size: 19px&quot;&gt;class PersonService{&lt;br&gt;&amp;nbsp; &amp;nbsp; execute(){&lt;br&gt;&amp;nbsp; &amp;nbsp; &amp;nbsp; &amp;nbsp; PersonDao person = UserFactory.getDao();&lt;br&gt;&amp;nbsp; &amp;nbsp; &amp;nbsp; &amp;nbsp; person.add();&lt;br&gt;&amp;nbsp; &amp;nbsp; }&lt;br&gt;}&lt;/font&gt;" style="rounded=0;whiteSpace=wrap;html=1;align=left;" parent="1" vertex="1">
                    <mxGeometry x="30" y="350" width="420" height="140" as="geometry"/>
                </mxCell>
                <mxCell id="7" value="&lt;font style=&quot;font-size: 19px&quot;&gt;class PersonDao{&lt;br&gt;&amp;nbsp; &amp;nbsp; add(){&lt;br&gt;&amp;nbsp; &amp;nbsp; &amp;nbsp; &amp;nbsp; ......&lt;br&gt;&amp;nbsp; &amp;nbsp; }&lt;br&gt;}&lt;/font&gt;" style="rounded=0;whiteSpace=wrap;html=1;align=left;" parent="1" vertex="1">
                    <mxGeometry x="530" y="350" width="180" height="140" as="geometry"/>
                </mxCell>
                <mxCell id="8" value="&lt;font style=&quot;font-size: 19px&quot;&gt;class UserFactory{&lt;br&gt;&amp;nbsp; &amp;nbsp; public static PersonDao getDao(){&lt;br&gt;&amp;nbsp; &amp;nbsp; &amp;nbsp; &amp;nbsp; &amp;nbsp;return new PersonDao();&lt;br&gt;&amp;nbsp; &amp;nbsp; }&lt;br&gt;}&amp;nbsp;&lt;/font&gt;" style="rounded=0;whiteSpace=wrap;html=1;align=left;" parent="1" vertex="1">
                    <mxGeometry x="254" y="550" width="320" height="120" as="geometry"/>
                </mxCell>
                <mxCell id="10" value="" style="endArrow=classic;startArrow=classic;html=1;entryX=0.5;entryY=1;entryDx=0;entryDy=0;" parent="1" target="7" edge="1">
                    <mxGeometry width="50" height="50" relative="1" as="geometry">
                        <mxPoint x="560" y="550" as="sourcePoint"/>
                        <mxPoint x="610" y="500" as="targetPoint"/>
                    </mxGeometry>
                </mxCell>
                <mxCell id="11" value="" style="endArrow=classic;startArrow=classic;html=1;exitX=0.25;exitY=0;exitDx=0;exitDy=0;entryX=0.5;entryY=1;entryDx=0;entryDy=0;" parent="1" source="8" target="6" edge="1">
                    <mxGeometry width="50" height="50" relative="1" as="geometry">
                        <mxPoint x="200" y="550" as="sourcePoint"/>
                        <mxPoint x="250" y="500" as="targetPoint"/>
                    </mxGeometry>
                </mxCell>
            </root>
        </mxGraphModel>
    </diagram>
    <diagram id="BepQPYw58fosz_uVgz6F" name="第 2 页">
        <mxGraphModel dx="815" dy="518" grid="1" gridSize="10" guides="1" tooltips="1" connect="1" arrows="1" fold="1" page="1" pageScale="1" pageWidth="827" pageHeight="1169" math="0" shadow="0">
            <root>
                <mxCell id="134Ek7XrDGWU4xRJH-jC-0"/>
                <mxCell id="134Ek7XrDGWU4xRJH-jC-1" parent="134Ek7XrDGWU4xRJH-jC-0"/>
                <mxCell id="134Ek7XrDGWU4xRJH-jC-3" value="" style="shape=image;verticalLabelPosition=bottom;labelBackgroundColor=#ffffff;verticalAlign=top;aspect=fixed;imageAspect=0;image=data:image/png,iVBORw0KGgoAAAANSUhEUgAAAOgAAABSCAYAAABe+JhrAAATFElEQVR4Ae2d3XMUxxHA+YNsY6qgYstIlg7ExxHEh5Bkw1ESWKis4kMSwTngQWCwgBgb8aEPjCih4EKWq2IMxsGVo1yuOOU4IZWXvOYxb0lVHvPaqZ65vultze7t7u3drW7n4WpuZ2d6emfmN90zOze3bs+uLnAfVweuD6SzD6xzDZPOhnHt4toF+0DDAO3ZuxPyJyZgx4UbsO3affXB7xiH91yHdB3S9YHVfaAhgP5ycAi2XV2AbdeX7J+rC4Bpmt1APfkBuLpSgrsTnVZdegYvwkppGa4O2u8nrX/PvgKMF8dgeF99y+vJ98Lx4ggU8vUtJ+n6yYK8ugOq4Lz+wA6mB9gHdYdUA1aCFy9eqE9JwJYWQPuOjkFxtBdaCdDCaBHGj+atA18WQIv7jFZAD76zBwYO2CsT4/F+mALRdQ20nB5Al1Ram7vbN5qDwnQOCjdz0H8yF6psqV/PxAysAlJZRGMxqwEqZUa9DiNfQTlegL4GWrNGWNCefB6Gx+vvDURtk7SntwJ6Z+Y2LC4trYIU4cR4vB/mwXB+yd3arR8vwpvDp+H17Xthfdd22Li/ALkLtzxpMI+UjWDu7++CfQe6oHAnOqA9+RNwt2RA5PI1uDNwJt8JYQDieaN+DyMfLc3xdxvrajYCUKyrnndHlGcQtd6ynN4KKIHIIbXFVas4tSDErOSbwxOwqf8IbPloDrZeW4D2X12GrVOfeQDFPFJuYXZLJe7wbAxA0XquXIT3LFZJw6vnlQYgDTS5wjQn1S6yhhl1JPAp3crUQEVPee+Lj86pQYLS2vSRVka7uGZuqK+LcPbsWfVBkHUer/uoXOSyFbblkfUrAfXLo9ONwfDRkYoO3G3V97V+RZw7Hx2BIvMGlFx2LfVw1xEWiTiQg4f7lOXkwIapTOnevr59D2y5POcBkltY9f3qQqWTUxmH5zSgCKftQ+n8QmUlfQE1C0MEaKnEIFSucdnCKpeYrC1CbBaMKC/CTHByYFE3nsamqx0UDagCcdS4vsoalRd21HcCUrmS2goH5eHl83KD8hCAOD9Wz8MWsegeWX8aODyAusWoVX2bt4Ptu9WCUkKC9PGTb6wuL6XzC+2AzkYGlOTb4AxjUasDKi2ocTE5VNyCokyyhjxEKP3K47LomXgoLYy2ZMaCYlq0jmRBiwSo6vh6fhc2j6dcCzjVysH8GsJyuei+CuvIBw6Znpfvvq+2nFQngYBiIoR0evrTVfNREhAUrnZxx2FT3yBsuTwLW6/cg/axSeg6d10BO3HvS5hbfgKnZ5Z8R5nYgNYwB+VQSUBtbirWR2xABSgcNv3duLL8HpZJq6QIFrmd1fJQ23ksqLKK9nJ0OrPQEx1Q9zqH6jxsWBXQsIJs6eQiUbdaJBqH17f3wGu5HbCpfwi2XNIW9e7y1zBw83O4++hx4oCibu9NLYdexS3Nn6jooPP5ubjehacz89z9NffQ5b2KlrXae1ZmCVFnDqG0Rmqeyd5dqrTjI3CcrZQG5dGyy9aPDQyBeaR+bGU2lIur4Pd6BLZ+4+KMRa0roFFes9z74ol6zYKhXwPFtaAkL/R70Hnjvnrmo2wOijKlPFpMkve4DAQeXWI/68tXcT2AlueW5N6Oj47AOAe0fJ/mh0qHgDy+gAblCQBUlVe2vqijdZHIreL69m2sP9unroBigWE2KiCU8mNTttlx3MWtly7aEurFIA5ovcqrp1xujbk7XM8yW0123QHFCqu21U/CGWRFm9kAyt31WQ1OUi/lvo72qgUhufCSZDlJytIAGveVXF6aD9McOckysyCrIYBiRaK7i3NStXAkNsunHVBaseWuaj07B1oe7SaaDl/P8pKSrS2+eU9LcCYlP4tyGgZoUOWmHdAg3d09+9zJ1Usy9ZIKQF1jJtOYrh5brx4doD6rZ66zt15nX4ttum7Xqa/BfVwduD6Qzj7gAHUDlBugU9wHHKApbhxn1dJp1RrZLtkAdOIpbPvoe9h282fonn+pPvgd43ZNPHUWxA1Sqe0DmQC0e+4ldH/2N/tn7mVqG6eRI3Wzyspfew6lr76FwZOPa2oHLid//ltYKX0HU+ery+T5mlUHQeWuWUABoGqDDl96rtL4wlmGFiuI0gZVVtx7Ew/NOUhqH24CHdJPl/zJpzD1lSiv9BwmagTArzyKH5z9DkoPn1VtE0pPYVKAcDnNABTbeGU2eW+sroAOFJ/AgTP2eQTG431qqDDhh/d+hg9u/qjyEKB4jfEy/77TT+HOlz+p+DCAYlrMI+Xsv3QLDt4fhYP334feqU9X3Zfpbdey8fA6Tme2yZZxBOj8NWM9sPPiwMDjZL5arhUQMQcdDlZNOsS0xImVrwbGcFY7ynPWFdDbi9/A4vKzVZAinBiP96Moe3nhL/Dv//4P/vj3fyGfKsRrjJdyTt94AfO/+7OKR0Bz8y/hzZPTsH73EVi/bQA2HjwNnR//Qbm9mBfTYh4pB8Hs+eBz2H3mERxaPLbqvkxvu5aAxrU2NtkyzgYoptFWpT6WFJ8vLvyJAdJkQFUdow4xvAjZhvy6roASiBxSWxxXqNr3d87+Hv7xz/8oQDHEa1ue3/z2Rw+gb5z4FDYWzkHu5g+Qm/0JNk8uw5ZbP3oAxTxS1qEHw5W4Q0vvVb7LdEHXHFAbQBoe45byzo4w04kNJeaq5k8+g/mSyUPulU0+6ibjg8qUsnm58jm1XK/lkPlJN62HV2/u8stBRF7zsmUZQXLC5lP6qfmrqVfeFrJMWS9K35ieBNeRf68roFgQB7Jw/omynBxYrky171EsKLqs3IKu3z0IuekfrAtFWC6mJZeY61FY0oAinLYPT+v3HQElyHhHwvSqgz80iyTKopRB9OuguqMYKDh8/DvXh8cHllkG3wMVWgY2OHjlInDGMgfrpuHknR7rhhaJ5PPKayqXQAkrJ3Q+dFP92iJEvWi9TF1QubWEdQcUlSNIHz95ZnV5wz5AlDmoHdDvIwNKutngDGtRuQVFeRxCkm+zlNQRS2JFEvNz4Ok7QsVBJNmqTMscyVqmxVX0k6nkosVhViNQN5tsFieBlNf0PKr+WJlKjwA5YfNRurj1ouvJDJwkr5awIYCiggjpjYWnq+ajcZWnRSK//Ktd3E9g4+FfQ276e8jd/hO8dW4R3p56UtXFJfmJAqpGY92QuhOaFUBbpyRACFRbByU9KS23LniP5wkqk6fzyrR3PGk1bPkrchhEtjj57PLalscWV1s+e1vYnksCKeuCdKslbBigtSgZJ69cJNo6/1d448QnsH73ELyGi0SFooIVF5BQvt8iEZWdKKDYUcmNFZ0WR+/KvfPfwlR5NZaDR5aVQzjxULtWPB3prjoXs8Kys3nK9HPlhMWqyGaDDcYF6+Z1cUlXr4trBgKPXuzdpizDLqdcH1HyBbVFiHrxGxioruKELQtoUq9ZqFJrBZTcUDUH9czZvO8tVx4+hxV2n89f+Qqh7gxmbkuwUmf1lCfgkmlkmQQAyaABg+pChqgjlY/3/HRT95h7rjyCWe9GBe5ecr20TAMvDjJGv+9gisnhoETKJ94h8/KV7mVITbne+aYa+NbSKq5syEZf0+aDMO9BKW2jdWyF8hQEYhBo5nNxQBulhx70zACSVLkta0F5BbmtfvbNIryOav2u3NGErUdcnZQuDR4w5EJgXN1lvkwAihvi3Wb5+kMqO1ejr8ntreaSN1qvWsrLBqDu1xqxNljU0rFc3mQGRAeog9fBm+I+4ABNceM4K5SMFVrL9bhu89td4D6uDlwfSGcfcIC6AcoN0CnuAw7QFDeOs2rptGqNbJfsAtq9E9qHJ6Dj7A3ouHxff87eUHGbu3c6q+IGrlT0gWwC2j8EHZcWoOPKkv1zaQE29w+looHijNZtHQMwuVyCO8c71+wz0HO37R+B4lgBujtqexYup21HAU4Vx+DgjuoyeT7SqZFh9gBFOK88sIPpAfZBXSEdnTH7aHFvZ2n5IvTW2Amp4wQBSvdoP6kquzQDowmVTTrIsPvQGBRHeiMPGEkBwuU0A9C9I0U4dSgf+fmzBWj3zmDL6QF0SaW1ubvbh3LQdz0HfZ/kYOexXORKx86LgD66MFDJi9elmROVa9nBo1wThDYLarvXdlz/YbEtfZRy/dIqIGJaQQ6Wn/ww8XHlxM0ndWrryMPBsXBWm+fNFKBqzskgbJ9ahE1HTsOr3Xvhlc7tsGFvAd46f8tjXTEPrzD8jmB27eqCzp1d0D+dDKC9F5abBig+U1vfRXhUJ0uK1uPY/urupKxnpVcdXFxbOX5xSQFaeZaIXkSmAFULQgzQjUcmYMOBI7D5why0X16AN8YvQ/uHn3kAxTyy8fpvbanEDdyuHVCrVes4AXfYmUP436TcDW0LuC/lafi0hZb36NlkPOUhV5hb16CySR6FNsvR1tELx4rmf0S56yfvqf9JLVtf7ZqOwN6yOy6vqUwMo8gJm0/JVfNXozsfeGSZxaLRtZI3oieRLUDFwtCr3Xtg8+ScF0gGsFpEwgUjsaI5cFsDinDaPjK97TpoDkoAcBcY3VCCtPp9s0ik8y3DZJ+2YBJE0o3Hq+8zZk4cpWySR6HutKaj6mvj6mmAtYWlDs47PVpfWiSSQMprb5leqx0kJ3Q+dFNHzIKVsq5lCEl3z2CD1p9BKuuCyg0KHaCTs5EBpQq1wRnWoso5qAcChFEsGnkAqnafVnFnDNSkM5dDcRjqeAMyxqHbTRa0MjhUKZvLVHLR4jCrgZ0araL8YMe2uZM8TgIpr6lsnscWFzcfycIFL9KfALSWqeadZqCweRMk0y/MFqD4zpNZyI1HxmFD7yBsnpyF9g/vwS+OT0LbB9c9aWwuLlVmooAql1UDomC1AhryfhnQ0vIyPCp5ofMFlIFH7i1ZcD4/raYb1Q2F0mrYOnIlrWW+ydNLsOR1XDnR8pnVWF4+17MiTywMybqgdEFhpgCVi0QdVxYBIX2tuwde6dwBGw4MKVg5xLZFIqrQRAFFQMrzTF8Xtgxt9fvMxVWLP+adqA1Qbb0NyBJCtYAVUjeqGwp1p+QurZ5/et1Y7QLrtNLiSBfXyFKvbsjFZO82w8kplxklnxhAPOWX59WrXFzuPaiyjLtPdRQUZgpQfGUSuEGBWdfK/DNgV1GtgJL7aHsXSRBSGoKXGjPovoSQ0qKM99v71SYGkqvKtlpr85720cyMZ4WX5JEMqRvpSKFcxdWWx2ehhbnARdxMcMi7UYG7l6dGRuCUBVAsFy2acUO9cjyWjwFaNV/ZZSW5vHyVVyx+kftL9aCsrFvFrbJ/MyUbFajRshAqIJglafYzc0AbpUuc+Sfqli0LSquxLb7Vr1GdLko5yh2MaD2iyI+SVunS4AEDvQju/obVN5uAIqhus/yq10dhO81aTUdur3Q90/w82QWUrKkLMwdqmoGUujlAHaAO0BT3AQdoihtHjqbuusoCYAu2pQO0BRvVgdw6IDtAHaDOxU1xH3CAprhxnCVsHUsYty2zC6h7zeIs5xoYnLMJqNuokFo4bZvO41gfLkfvHDJ7eIPk8XxB6Rp1L3uApmCrn97LajanU2OrX42IfbF0L25I+3Jp36zaeyt+/B1XdlC+uDuHkgKEy2kGoHF3Dsk6zRagCW2Wr/VMomYA6jkRwZ1B5OtBcLAlLFGu4+69lWVkClD5c7NmnUnUbECxE/DfeMpOUeu1/PVKFHmJASJ+GhZWh6TKx/KUrBr3H2cK0LScSRQWUNuJBqrhxXlElR9W00kKx/V5Rngqw/7yz8u4BdUyzG9G1XX5d6PkCvP0Wl/z87Ogn5fZLAf9PrPyMy12/KS8h2miHnGin8d7zlGQHExPn6DylVz1czSfn8ZV+3kZ5q1xU362AE3JmURhAPWzcDIvzTERKPrOAaI4Dpzu0AZQlcadQaSgRetfGSCacAYRDRwUOkCbcCaRhIwagy8SkdUqySNLyvNHsnQUohW1wWiLM4B6F6psFluermDymlMaSH91T1gNdPPIcvLQnUFkrDivP/k9W4Cm5EwiX2jYuUDUUJSWQLUBI9Nya0n5eRym53K0tTYHaXPrzdN5y/HCbe6hq2mO9Qia09nu8Tj5w2p5XSnTMt8MkhMtn/kdJy+fy6/IS+AMIpJFYaYAlYtEzTyTiJ/zg41BFrMyn+y7CJPl/1bhkFE6DtzojD4zl6ejBrbGqfOPDGASQq4blUd6KV0tA4kpDwE17xxpjufOIApnMakeKcwUoGk6kwgbQJ6NyyGQ9/nfQpDFI/eWYLXCWF44orQY+h3pSWncGUT67Fu94GUWiBpxBhGBSWG2AMXVuxRsVKDKb9VQuYI1rl4mWTfcNU1SbpAs22p2UHq/e9kDlCAVK7r8qE08+W8t//2gX2M3Mj7uTqJ66LiWziCSz59NQBFSt1m+8i5QdopWucaFHPU+lC1arbVnyy6g7GX1Wms0p2+8BZe1WG8OUAdqy1vStQgm6ewAdYA6QFPcBxygKW4cGkVdmB2XVra1A9QB6ixoivuAAzTFjSNHU3edPUv6f3dZAgZanqHGAAAAAElFTkSuQmCC;" vertex="1" parent="134Ek7XrDGWU4xRJH-jC-1">
                    <mxGeometry x="530" y="20" width="232" height="82" as="geometry"/>
                </mxCell>
                <mxCell id="134Ek7XrDGWU4xRJH-jC-4" value="" style="shape=image;verticalLabelPosition=bottom;labelBackgroundColor=#ffffff;verticalAlign=top;aspect=fixed;imageAspect=0;image=data:image/png,iVBORw0KGgoAAAANSUhEUgAAAQkAAABVCAYAAABaUxFcAAAVTElEQVR4Ae1d3XMUxxHnD7IxOFDBipDRF4IzERghyYbDEhhUUfEhiUBOJlUCgwU4mG9JYEQJFS5kpcoQMATH54pd+SonJHnJax7zllTlMa+d6pntm9652b3du927k7ZVdbW789Hd09v9m57e3dGa119/HeQnOhAbEBsIsoE1O99qB/mJDsQGxAaCbEBAQkBSJgmxgVAbEJAQAwk1kKDZRcqzE3nUFSR6d22H3NEJ2HbmKmy9dE/98BzLsE4MLzuGJ/d65dzruoHEjqFh2HpxHrZeXnT/Ls4Dtmm08fTmBuHichHuTGxxytI7dBaWi0twcchdn7T8vW/nYbwwBofeTpdfb64PjhRGIJ9Ll0/S+hF66YNNXUBCAcTl+25w8IHG/dSBQjt5Eb755hv1K1oO3ywg0X9wDAqjfbCaQCI/WoDxgzkn+Iqzp+/s1eo4ECT2vrMTBve4byiWY30UpriMCI0gfCCxqNq6lh79ox2Qv9YB+esdMHCsIxJvW77eiRkoAwUVGZjIoRJI2DTjXkehr4BhPA/9dZzV6xFJ9OZycGg8/ago7j2R9uEAFQgSt2ZuwsLiYhlQIEBgOdZHUS7mG/gSo+sXC/DGoROwrmcXvNbeAxt256HjzA1fG+xj00Zw2D3QDm/vaYf8rfgg0Zs7CneKBgw4fQ0eM3AytwWiODHvG/c8Cn2ccY+8W9+wvx4ggbrqfXdERUhx9Sbtwx05Tf0EggSBAQcKV1kl4VSSkkULbxyagI0DB6DzoznoujQPm396HrqmP/WBBPax6eZnO0tl+2erAAmMIpbPwvuO2VkDiM4zGCfWoELLEspR6OWKBhSUkcCH2i1PD5bktOs+/+gDBVTU1iWPPdvq5YbJFejrAkxOTqofgonu4w/l1XLFi0ZcfWz92iAR1Ee3G4NDB0dKMvAlhK7X8hUwl3JwBAosKlJ02bUth1w3DgyCdB8IEtiBg8LQ/n4VQXDQCCLKy+2lxrqendB5fs4HCjzSUOcX50uORrT2z2mQQIBw/ahd0FFFC4EgYZKVBBLFIgMCtUzxIg21PKGoA4HEJDGpLwIKAQQHDZSNt3HJ6nZWDRIKDEbNMkTNyl6yUZ0TKKiwXkcjYX04f843rA+BAOZL1HhYYpXqKAoi8PKBhCRIy2yb34dmPA8FCRSYgOLxky+dy49Kg3KDxGxskCA+LoCIEllUBgk7kjDhPndsHkkgTYoK+BGBIYgfp0Vj4kd7ptUzuokksC1GCRRJFAgklPPp9X7UPj6+DuetxAf7ayDw+OJSwooSOHjZ7Tl/OW++CILuSUWQwIYIFNeuXSnLTxCRsGP5cmMcNvYPQef5Wei6cBc2j01B+weXFWhM3P0lzC09gRMzi4FoWzVI1JCT4I5tg4RryYD6qBokLGflDq/PzbKC1yFPenqAzk1LgEp96N75IgkVHbj56HYm+RgfJORRK+l8pRwjgUQtg7ETl90qcTkO63p6YW3HNtg4MAyd53RkcWfpVzB4/TO48/Bx4iCBY3h/einy043i7aMlGXS/oOWGPxl68jZfipg6XH5cxAij0nsYLCJAmTkQ2LOyyjuwdxtU2/EROMKeIIT10bS9KICBU2gfWz72xCLSckMBkD8yqsW+pG/6EUjqIBHnEejdz5+oR6B4DLr51UYSRC/yexK3zVLCl59gOQmkadOjBKddx2kg6ODyJCgK4U83fCDh5RpoqTE+OgLjHCS8esoXKBlC+gSCRFifEJBQ/LwoBGV0Ji7l6UagbaP+mvGXOkjgoKO8TIXAYP+aUWF8uZGWfDoi0AlKDhJp8UuTLo9K+NIkTZ5CO1mwqQtI4E2r9Fq2DRBh0UQjjUAtPQKekiQpl1pKjPapJKWdDEyST5K0NAiYpQQtPyg/QjmTJHkKrWQBwaXPuoEEMselB+YoVDLT+sCr2UGCnmTwZYNLoUmV4QysQ3bjdEnRTpOOjnzMexwEEGnyFNrpAkVdQSLsZjY7SITJLnXpGqnot7H6bRqQEENorCGI/kX/QTYgINGkGeWgGybl4sz1toE1bx3/FchPdCA2IDYQZAMCEgKSMkmIDYTagICEGEiogQTNLlKencgjMyCRO/El9Hz0W9h643vouv1X9cNzLMM6MfrsGL3c63j3OhMgse3nX0PX3Evo+vRv7t/cS8A2YjzRjSd3+jksF7+C6dOPm0JvuUsvoPjoOQwdq00eTqdRY2wU3yD7X9EgAQAVDVQBRBA4WOVpAsXEA7OvpvpuIwGDDrqpWJ479gxuFw3P25dqcx6bV1qGPDT7FRQfPKt4X8vkEZAo6QxtbXn2aena1lXc69RBYrDwBPacdM9QWI71cYT+8O73cOr671UfAgm8xnKbTm7iaXgEYYEERhvYx6az+9wN2HtvFPbe+wn0TV8pq7fbu67tG4fX1TiDi7ZdRgBBwJA79hSmH72AiRpnWZtP0tcKeKoETx4B1CJXUnRqkaHWvvp+JxflpQ4SNxe+hIWlZ2VAgQCB5VgfRynn5/8M//7v/+B3f/8XYoQ64jWW23Qw38CXGJ13/gKbjl2F13YMw9ruPfCDd09A++Xf+NpgH5sOgkPvqc/gxycfwr6Fw2X1dnvXtQ0S1c6YLtp2WS3OZtOq5zXqiIAtLt+knDspOnHlT7q9GkcVEZlLjtRBgsCAA4WrzCVcUNk7k7+Gf/zzPwok8IjXrrYqScmihU3HrsCG/ZPQceM76Jz9E7ROPYSOm3/wgQT2sWntu3+oVLZv8f3Sud0u7JqDhEZ6v0Po8N29PEBAoZ2vikUTEVDEQHUUYlJ5kMNRfXk/jDhQLr1U+fqL53DlC3/oqsDt0XN4T+Ukosti87J15Zr9guTEvnYd0qechNYlk82SlfOOQ4f3i39P6qvbJCeK1EECFctBIX/6iYogOGhw5Vc6jxNJ2MnK13YMQcf173ygwCMNdT73sgwE8osaJBAgXL9KMmM9ggQ5CjdorFMO8sAk3dQs4IGBbfDESxu3CSlt4EEaig8DFc0LAcDdj2j4gIit9akewYfLRY5GIBVVRmpn5GKOrXIqQXJqEOMgiPqNCxIkd1Q6JC8fO5WZMQTJrEGiXrrVYzP65HLGPa8LSKBQBBSPnzxzLj+iCh4nJ+EGiW9jgwTJ5gKIqJEFjySQHgcCou+anciQi8yxqT8HHTq3HZVoUv6DwIPa0xH7cRAgmTR/bfjcOXznDEioXxwZVVuc7Vk+IlROBz+lT68/l61E2wJLko+ABa/tMptOqY2XFI5zT+qtW83PABbJXs2xbiCBwiFQXJ1/WpafqEZw7IN/YX3LlxufwIb8Kei4/i103vojtH6wAG9OP/GBhmu5QTwSBQk2U2pjNGG9yzjJyMgwuVOQfEFHAhoVATgcjPoRDz6zYh0BHAIOgRCXMUiWoHLix4/2zBfW11XHy7hsyMO+Jr68j6ssqF+prUoIFyHKPam3bm19kszVHOsKEtUIWEuf8sTlS9h07BNYt+M9WLt1EDbsL0D7NX9y05W4JBkSBQl0VlpSWI6LzliqO/0cpr3Hl9zQuOOTfBMPdHipjJslrXRbLxrwZkEOBKV+ntHzOqSt6D16AbcfmZmJO5AtC15Pq8jEtSxwh8BcRsUzVE4/XdILRQVaNiOrrU96v6Ncbm9J4IhIOE08j31P6qxbfn/IPqo9rmqQSOoRKCm3VpCg0B6PBALaIbRxUv3ygxewzMJjns+gZYPqpxJyJtfBnZuWGUST12kDKu9HzsbbcvnKeRuH5zR9YwuRkfRKRxwn581p4jh8dV7ORevyK5ie9b9MxcfP9alpGgDBaIJ0pCICRke3ZcDLlnxx70m9dauiJDZRkI6rOa5qkECFNMvLVNXcnKz1UU7J8hKNHj8HiUbLEoe/BiQDhHH6utquepDAQSugkNeyQ/M3LuNoRJlaGiQ0A9Yqv5KliUAr6ngohxS1faV2mQAJVIJ84OV+67WSgWSxnpYgfNmURT3QmDMDEjRgOQpYiA3EswEBCdlPYkUsQ8Sx4zl2kvoSkBCQEJAQGwi1gTWtb7aD/EQHYgNiA0E2ICAhICmThNhAqA0ISIiBhBpI0Owi5dmJPLINEt3bYfOhCWibvApt5+/p3+RVVdbavV2cRwBUbODNdsguSAwMQ9u5eWi7sOj+nZuH1oHhFWskLW2DMLVUhFtHtjRkDC39Z+FhcQmm+hvD3450WnaPQGEsD91ttcnD6bRsy8Pxwhjs3VYbTVvWStf15ptNkECAuHDfDQ4+0LifKlCMzpjvJ9Q3CEtnoa9GIyYDqwQSLW1H4RbbAzNpMEkLJLr3jUFhpC828HHnJh1Vc+R06u2sJG+tfHeNFOD4vlxkHWYPJLq3h0cQPpBYVG1dS4+e4Q7ov9wB/Z90wPbDHZEVTjcajwgSD88MlvridXHmaOmat417HgYSBBAEDLrtDIwmBFBxZY3aXjlHldEAd+6o/FztkqLjol2vspa2HOwdix4BZQ4kVA6CAcHm6QXYeOAEvNq9C17Z0gPrd+XhR6dv+KIM7GPfQASH9rfaYcv2dhi4lgxI9J1Zqg9I4FIgwajF1k1a1zgDHt5dXWiflHMnRSctHUWlq8YRMSLLHEioJCUDiQ0HJmD9ngPQemYONp+fh03j52Hzh5/6QAL72MofuNFZKhu8WTtIuGZ+mvHNp8z+2T6s3qanw38dqVA/iiTssVE98aVox9DUS5WvH34MHy/5oyEFdEtnYfcezEkYeYNp+pc9xKtcpvLZr6WtDw4XCjA5Oal+PIS267AN5SR0uD4Cu7zIyb7mvOPQ4f1wWURyFQqMV4DMenZHENRj+tnxYRga8y8L1FJrLA9dPZgLiUIzRD+YT4kYlWUPJKxk5avdO6F1as4PCgxEVGITk5hWpn/wpgYJBAjXz27vug7LSZBTcadpOTIDRc/xKtebxKXu508iYpnKgzBHRhk1XdPWAMMWoHOSQbVHmbyohOoRfDQoaZBwyVqJl60v7ay2Y5iQ2TgZyqmdg0cdGIXEBYm4dEjmINDR9IJkRhAsgA9QWLLVNz6VMNW6IBk5QGrdog7cvEy90SfJ7joKSCiQmI0NEqRMF0BEjSzsnIQPBJjzES+fE1aqp6cbMwZYiA4/4syvwMLLhRB4UBRBRwQrzp9ocFDxAYN6uuGBhENW7B/Gi+jT0c5HYLhMMzU/orO4lgS8zHZi+7rEkzmpqyywnwdSBeak2D9UZpUn8C+nOKhwXr5zh4yVeKn6GHmJ7IEEvhPBIoUNB8Zhfd8QtE7NwuYP78IPj0xBy6nLvjau5QYZTaIgoZ446FlcAYaVN9BOGrHeA4ni0lLFR5E006sIIMChtWGZ6ITGj0cCOwQcinx8gBFA0zVGTpefa4cxMx93et4Oz111vIw7mWrPZmZOi/ehcl5m06E2dKTZn8CC96U2dKS2PPrBOnoSgUsNihY43yCaQeWGH0YaRp9U7jpmDiTsxGXbhQVAoFjb3QuvbNkG6/cMK8DgQOJKXJIyEwUJdKZKy4lSaK/X8uSUKA93Oj7rUz6CchDqmj1F8UUD3qNRaot0R2do2eAGCUVvaQZuLbFlCo8kLJrIb0pFJnoMLl6kXzryWVWN1bmk8Ifg5HDkgP7lhgnF1VrfcxjtgLqOQvlwOh5P9s4E0tjrJViJN9Kw6eE4do2QzHq5QbxK41a5gxE4zJ5G+EDC0gPy2IvRlFXOeSn9BQAj8eXHzIEEPs4MfYmKRRmlfETI25e1ggSF8yrkd+YHzLsUBCB0AykCIBq8noOEMgrPUakNLTOoL3dUAhW7zqZp5NDgwR/fahoscalAQ4+FZFBysXLkx+Ug+nS0n25oZzGJS+5gOJPSMkTN5Pv8L1PxxOLxkZFSIpCDhJIvhI7PWRlIYD+UtcSfPUUIkpmDCY1X8feWIfzdEM5XtVG8NT9fToOVoyy2fjhNztM+zx5IYAKySV6msm+GXId/D6GcI2JGvh66tJ21HjyT4KEByURSlWhmEyQIKKwnHXyJgdHGSn4tu9KNX6n1amnAZuZGjkPJ0kSgFVUXlOeI2j67IIFAIR94lT3ajWo4WW5HSxke2q9mfWQbJKx3H1bzjZaxhS9lRD/B+hGQEKCQaEJsINQGBCTEQEINRGbY4Bk2K7oRkBCQEJAQGwi1AQEJMZBQA8nKbCnjDI6YBCQEJAQkxAZCbSDbICGPQEONQ2bX4Nk1S7rJLkis8j0u623E+jVs8+1Gvfnb/Cp94GS3D7rmdPQbltHfVAyiGbe8UXxJzmyCRBO8ls0/qqKbgUf9sVRye10Sbfs7j7BvJKhPnGNaIFHtG5bcueOMw27L6TTKWWvlG/cNS1sH2QOJhD7wqnWPy3qCBAEEAYP+UMt8fGUbRbNcK+eo8rVn7ty1jCcpOrXIUGvfuN9q2PwyBxL2p+KN2uOyriCBX1pae1PYhtCM1/ZXn3FkTMq5k6ITR/Y02qpxVPnNS+ZAoln2uIwKEvyTbt8n1t6n3/Q5N+0rYT7n1ns14NZyuzcfUdvnUyRhGyFFGpVoyZ6W/r0luR75p+f8mw7a14E+Gy9tHFPaiUpvtddMe1ryceF59kDC+vKzUXtcRgEJe08Gunl2XwMM7n0osR9tFceBRpUrsDEJx0q0wje2oc1pyjfEqcSLxkZH7Vxm5yR9bZKGfP8FckS+XwJGIf5NZhitgA1X4tIpyRpKL0jm5t3TksZFRwGJBu1xaTs63RCeuKQZvmj9JyxyeJr56Ri0DyXRxiNFJrRBTFxaXG4OYr7zkO3qSFZ+pCiIy2nnIzBcptmYH2VPS/2YNkw/qNda8hLZA4km2eOSz9g+53A4GLUlsOCzOe+rjcG9xRxvR+CDy49qaMmelu7//UHRzUrf05LbCp5nDiTsxGUj97jEWZ2H/+S8NLPi7Dzl/S9PAgrl2NaekXgjw/ahVLO87GlZ+p+d6rGq7GkZ+UW6zIFEM+1xqZ3b7GGJITgBBKE5/98ctETAOh3em76UlORgQjTwSMsMCvOpfTW0iEe5POaxKpfPB4Syp6VyToo6eB5F3Ysm2NOS2w2eZw8k8D39JniZyr4Rcl3+CrSdl2i0jvRLTSYB2mh5ovKvJR+BPLIJEgQU1pMO2eOy3FGjGmJa7ap94zINeZQsVb7clYY8UWnKG5e1fMEnH3hFXpdGNcjV2I6eHPD3H1bjOIPGlN1IohZwkb4CLhmyAQGJDN3soJlCyptvmdVM90RAQkBCogKxgVAbEJAQAwk1kGaa0USWxkQ8AhICEgISYgOhNiAgIQYSaiAyezdm9m4mvQtICEgISIgNhNrA/wHJDnmBxIxhpAAAAABJRU5ErkJggg==;" vertex="1" parent="134Ek7XrDGWU4xRJH-jC-1">
                    <mxGeometry x="60" y="17" width="265" height="85" as="geometry"/>
                </mxCell>
                <mxCell id="134Ek7XrDGWU4xRJH-jC-9" value="" style="shape=image;verticalLabelPosition=bottom;labelBackgroundColor=#ffffff;verticalAlign=top;aspect=fixed;imageAspect=0;image=data:image/png,iVBORw0KGgoAAAANSUhEUgAAARsAAAA/CAYAAADQZ2y1AAASjklEQVR4Ae1d+1NUx57Pf4PpnGeY4THLDANC8UbeKFA85C3gyEuioqIBo8YnoKhBUZRADHgxATSoaK4kZuPWVqW23LIqqaQ299a9lcrdym7V7t71Vt39bPWZOTNnhpkzBx3GQfqHqZ45px/f/vanP/3t7+n5nrfeeecdsA/TAcMAw4AeBv4hPwd6H72y6r231C8sZWBjGGAYCIQBPaKh9wKV015nZMMsO0NA0YKGfd94pBRRZEMIh95mCYPJxC94CeEx3CXjn957F097AuejQCaEoLNewkIJB574ry/UgA8mf6jbW2/1rWb8XkffCDGhevArfHLna0zNP8b4zVs42tcAOx8u/OSic9LZ/uTcEkavXsHu+izIYcKvKacZHZ17V3zaOzpRbHt1HahkY8nLRu15E3788W387d+j8Hw0TdleGRnzkFk2RicrzbenKTjZdDXIuFPKrzuyIRYBCw084sMEMt9BXuv2jYyfr0zh+K2STf92CYQTYLIVw3FxCSdaE/0ufqGWiRBKNnNozyLgzYlILT+IE9MPcLTRvibtEz4e2W1D6K6OW1F/clkPanPMK67ndp6HoywF4ktg00M2m/H5z1F4sWxFUUmW249jRJ8RSTZGBA91HqNkGaxdkiji0eskmzVufz2QjTpG9o5pjPWVrJh06v1QplqyUes111zA+NQRZLzE5Fbr8E2p/mOyd2Lf5ds41deM5OiVVksgshGsZWg78zucO70P+VZhVXrxkE0yvvhTFP5rLtlNNPSer5z+frvJRp1sp3MEXGqW8LhTwkK9gO1mZ2eoGT3aI6JD9nQuq1DC/VJOachZXsblIlpexnKnhHlNebXxQGCl1w+1OrdZ6lbrULynLVqe5inMETDRKmG5S8bDFgm9iRw4g4MpmnnsK5cw3y7jSaeE2WoeBaLaP7oN1JdfiOVxsl7Cw04ZTzokfLxNQIFLHyRawI0uGd/s9vRB6UebgCyXfMQkYLpFwBYLj9MNEr7slrHc7LmvJ1+w/htpXx2DQKkR/QYaP1pnMPn19EfLB7sfSG563duykRCTXIWesTnsKTG5J4JgK0PzwDhGph/hxuxdDJ3YjQzNZOWTG9BzfhZjs7/HjZnbOH54FzLinPhW2ojOQMWBKzh3cwnXb81j6NRhFNp4F/49lo0qJ5F34IOFSdQnODEWrH3OUoLW45O4NPMQ4zdn8EFvHRJd+FTaN2Whsu9jXBgbQl1OfEDcByIbp55k2Kv68eGNGfQ5ihEneM8xVXbf1EM2Kfj0+yi8+ML+qmQj4wEliDgOJolDc4WE5VpB2RIYJZtA5VXh9cCqzXPcIUFLNrRcdr6E5TYRO60EMQJBcqKA97M5w2ahPU3AQCaH9GgOksShpVLC54XeZKknf1W5jIWtPBJ4ArOJQ1WOgIZY78EiqSKeBrBsFLLplDDXIKDNSmDiCSzRHAQXGQWTz0j/9dpX9esvNapfvfHTk5+2GUx/we77k1u9ppIN9dkofpuFx7h4sgNprsWS5kuoOohd9aVIijdBNKei4tg8znVnusmoYGAJI31liBVFRCdkoaB1D7YmqfiIRfGxaXzg2AZ7rAxBjMfmmrMYGWl3zQ8/ZEPK0Xt7Fm2pTozotU9ICpouPcBQXw2SzNGIthWj9fwiLvQVu/FtaZvAxNhhZGgWfLX/2lSPbNR8XGIrjt76At1bvPGr3vdNKdkkFGWisDsB3/0pCr9Ob35VsvH2pZBYAbc7RVQSAmNkE7i8KrweWLV5VpINj2MOCaftnpVGzW80JTxBWY6A4e0SPnNIWN4t49tqp1+IyuXr4Nb2n7YRZxcw1SphrFzE/mwexWayYnXRm+wK2XSLaNOsVlrZ9eUz1n+99rVt+X6n42tEv3rjpye/Ef0Z0a+v3OpvlWwUnw3hIcYkI8cxitGxXiSrlqVox5Ydh9B7ZgLDk4sYn1vG5IkG9xiaCw7ixLWbGBjoR0vTdmQlmtz3SPQOfDDvdACrhKaQ2ueDKFTmhx+yiW7F0YUJ1FmcE5rotE9s3Tjz+TmUaBzaJL0PI9PHkeOSnzNloYpaNlfOojY7zi2bqgM11SMbQqhlM4ATEzM4tErLZt/C28Bvm/C/z83or88OMdlYBMy3Cyhxkc2lHgldGrMzu8h3G+VDNhYBd9pFFLuURZVBwfpeUAcxh5Vkw2GgTcLJRGNMrCpeTWm7O2okLNQIaLZzSDURWDIlPK3hFcvCL9n4k58nSLXy2Jkr4MIOCZ/meywTpX8pAp42CkjQ9NktA91GdYuo9nfPgHxG+k902lfl8JfS/huqP8D4BdOv2iYlJF39Bbmv1uObaslGvUeEOvTPX0WViS6WsSg7uYiRk3tRVpiDREssYhtGMXWqyeshBBFikJhThaqd76Pv8mc41Z6r3HeSzcdosPrHnz+fTUzdKK5PvI9UZf7ot6+QzWfDKNZsa0jaAS+yof2ieo7Jdig+m5MHX8Jnc5b6bHpfymdDLZuSHgu++3MU/jLzypaNjPlKHgXRBCYThz21Mha3ccrjO9rJow4J47kcYniCtBQBU+3yCp/NnWoBxSZn+d56yV3eDQBC0Fwj4XYJhzieg91M3NsITx7/ZJNXJGG5RUSLlYNZILBbeRwp4mHzM3nVutSUyk9X7qEUDtE8QZKVx+E6X7KREUh+Wr67UkRvKo+0aAKR55CbL+IbH2Ih8QLudIrotnCQOA62WAKzSz7VsglENsHkM9J/vfZVXfhLaf8M1R9g/IzoV09/RvXrT3Z6TUs21EoTY1OR3z2Oq+N9SFEm+xZ0Ts1jX1kiJDEGCdl12Dm84CYbwqWi/uggdlTkw24xKduk1I5xTFzoRKxSPg4lx+7i6kgfClPjIUkxsGTXo6rIusJnozyNqjyMU9P3MVBrc90P0j5JRfNHDzDYVwO7WYZsLUbL8CIu9ZVC8oNvwluQvXMY3TWrfBpV/qpPo0Los7leJmDKIWO5Q8In5TyyNCa/PUXApw4ZT7okTJcLyM0UfchGwnCBgMk2yW95FShSgoBrbRK+7pJxZ7ugML96zwmclWSjXOc4lOWJ+KRNxnK3jAc7ROxLJF4rk7Ye7Xd6dicpVcC0Q8I3XRLmagW0Zgt44GPZBJKflo+zCDheK+E+dQRTB3iDiJ0uE1lti06a8kIJc+2Soqf5BgGFLtNYn2z05TPaf732VRkDpcSgfv2NX3D96uvPqH4Dyq49Z7OwjBvUgXtmAFuTnU9dqF4SKo/j9NQSJj5bxLmzR1DRfAqXXZYNvW/ObEX32WmMzv4eE7OLGBk5iap02e3TIdRB3DuKoan7uD57FyMjZ9GYn6BsZ5yWjeeczeWrV9Bdm+kmimDt035xCVvRenwKl249cjmIG2CX/FtSgfRAr+tto/TK6d3zOIhD9jRKxpmk1XdOT0h2b+OdNmVj/uaNuYds1HM2NuQXefw2RsZ8xaPvQCeAjVTG8rx5IGNjysaUYsBDNq4TxD+9wgliaub5Po1hQGNAYxhgGNCSjUo6vqkRnLgtGyOZWR4GPIaBjYkBX3Lx/W0EF4xs2L++3Q5QI4BheRjZ+BIN/W0EF4xsGNkYAooRMLE8by4R+SMY7TUjY8/IhpENIxuGgbBggJENA1pYgGZk5WN53lzLiI4tIxtGNoxsGAbCggFGNgxoYQEas1rebKvFyPgysmFkw8iGYSAsGGBkw4AWFqAZWflYHuPWD4ktQefgMeRrojBwKe9h4FgTrJp/jkeSTt8Ysgl2Apr+E5gFXDcO5kgC6WploX/qNBIwPzVPwqNtzkh7q23jdeYnfCqaLvwO+8tsXjFt6D/fM3Z/jOG+0rAFWl+NHjYM2ahKoaTEAq6vHemsdcB1dRz1Uko2RgLmr1eysbXewMjhrX4JhYbKaL40i86c1cUY1tNnqO4xsomQbVQwy8zogL/pAdeN6sFIvpR1aNkQkgXH9Sk0BgjiRfstlg/ho6PV7nCiWl0QgccZh4SHtTyS/MTJ0eYN9feIIRt1srGA64EDxusFBDcS8FyJpxOhAddJDI+ZXQIqtGExaWRDh4BSzhn2hI/mcKBKxGKHhGWHhGulPFLVWEEGAubzZh40bOiDThn3d4g4Ub26bZSYkoyZa7X4bakFL+7X4p8/TEd1vCdMrZxkw/nTFfh5sRkvlhrw/UgGqk1O2UlyBp7fLUSbJj4NSczAs/kCNLp8LMQUi0NHy/DTnWb89X49vr+Yi3afMLgkcTcGxw/oEgWRGnFk+kN3OFEtaRCBw6BDwqM6QbcObZlQfY8wsmEB1zduwHVnBMdrmWqAcYK8Ygm389XfdPsr4/ZWHukSB7OZw4F6CXe3OiNJaicEXbj8hZXd1yxhjgaEkwniYnn0N8qr8tk4TjXjD8dsSJI4xNli4ejIwp4UD9mk1+dgvMWKggQB0bFm9A3V48f9sYoDnhAB+y804kmr5PpNUHF4O37YG+P6LaJ7uAZPdtuQF89DkiQUNxbj5/F0r+ByJP8Yrgy2+d1CqTogpAg906OoCBIYXc0frjTCyMYnhjELuO4OOE8BYSQguF7AczVSYCQGXKf9E2wC7rU4IzcSnsM5h4id6qtyzDxmukXUuqwcmp+GQF1wxcjWThi/ZGPmcatbRJ2m/Gp9NtbSHHw3U43lU3kYcSShLknwdtBK0WjZlYuFjyrx41wj/vtxK/4+kuyOJCkW5uGX6WxsoWFGJRvuLJSh3/W6ImJKwTfLrcDXbd6fL4uxS7PdoWQzNthqjGw0VpRWP6/re2STDQu4vjJgfJCA4HoBz1WyCRQDOVhAeEMB0V8y4LpCHoTD3iYZx20c4jMl3Cv3vKaHULLpErFdu82KdwbkL9VMRrWeFZYNXbi6RFS9AtkodQsicvMT0d+9Bfdv1uFf9sQrvhFCRBy40Ig/XsjC/tI45FpF2NvKgIub3b4TQqJxbrIeNws5JLaW4ZfTNjdpOMmmEmeCBPR/1W3U6yIa2m6EkQ0LuL5RA66rkyAmXcS9Sh4HmiQc1rykkFor+5plzCrbKBpQn8f+OhmLWzlEGyEb3vmqmqlCDnaBwGYVMNRqfBtFODNODRZjZLsFeQmCss0p21uBFzcyFN8HIfGYnK/HXE00zJKIjLwkXBmr9yIb2kdLQyl+GUrHxcntGMvyhOAlRELPcAP+czwH7RkSzLKI9Lxk9G/zxECm5d0OYp33d1MH8WggBzHH4/0WGV82Ccj00Zs6BmuVRhzZsIDr/gPGGw0ITifleg24rkwmnsOHbTK+auBh9ZkMvInHwSoJix0ylndJGC/hkebnAJu/bRSt2xQv4FyTjMddEu41CmgvEvHQ4Dkbqn9rTipujtbg16UW/G2pET+PF6I/yxNQPbOuAM/mm/HiUSN+Gs3DIUch/qKxbJT+CfH49HYL/mc8DZt9+kcdxH1HtuGH+Sb8dakB/zZehMFi2WurRutQHn0ferlH3zSoPSWbb3sk7HY5r2md4fhEHNmwgOvhGfhwgIu1sTZj+aqH+ijhnHRIaNRsScMxVhFGNt4O4nAogLWxNhOC6XVt9UpiS9E5eNzP3xWadf+uQImmpEjEbCnvfs1MuMaKkU2YTMhwDShrZ20n+XrXL33idzqPh1XjKA9XnyKGbMLVYdYOm4wMA68HA4xsmGUTFucgm+CvZ4JHkt4Z2TCyYWTDMBAWDLz17rvvgn60kdL9fVfzsdSpL6YHpgeGgdVhgJGNi2wZcFYHHKYvpq/VYsAQ2dy7dw/0s9rKWX4GSIYBhgEVA4xsmGXDFhGGgbBggJENA1pYgKaubizduJYOIxtGNoxsGAbCggEvsjnwxSb8369v4z+ey5g4kOl+QsV8Nht3NWKWCBv7UGHAi2wsedmwVyRj4Yco4Csb0vKyFcJhZMMAFyrAsXo2Lpa8yIaer7HkpeHyd1HAUytyGNmExbxkE3DjTsCNNPZ+yeb6syj8/b4dVkY2jGyYP4NhIEQY8EM2GTj3NAp4Fov3mjORlJ+tnLFh52zY6ruRVmHW19DjfQXZ0K1Uao8Fz/8QBfy2Cc8upjOyCRGzMwCHHsBMp+tHpyvIxpKXgeF/3AT8awx6WzOQXMAsGwbo9QNoNlaRO1Z+yCYNqs8mgfls2H6dWXUMAyHCgF+yUZ5GfcueRrFVMnJXSTY2629svMiGnrOxlSVjjp2zYatZiFYzRgrrjxTWasy8yMZ5gngTO0HMJhojW4aBkGPAi2z8Bc2i19gJYrY6rdVqx+rdONhiZMNWsJCvYIxANg6BrGasDZENtW5WUynLy8DGMMAw4IsBRjbMsmELCcNAWDDA3q7AIuuHJbJ+JL1ShMnyel4rw8iGkQ0jG4aBsGCAkQ0DWliAxqyJ12NNRJLe/x9uVSSOa3UUUwAAAABJRU5ErkJggg==;" vertex="1" parent="134Ek7XrDGWU4xRJH-jC-1">
                    <mxGeometry x="504.75" y="140" width="282.5" height="62.89" as="geometry"/>
                </mxCell>
                <mxCell id="134Ek7XrDGWU4xRJH-jC-10" value="" style="shape=image;verticalLabelPosition=bottom;labelBackgroundColor=#ffffff;verticalAlign=top;aspect=fixed;imageAspect=0;image=data:image/png,iVBORw0KGgoAAAANSUhEUgAAAPUAAACSCAYAAACdQIyHAAAgAElEQVR4Ae2d+VObSZrn+78pvTm6snWBSgJxKLjvyxYE4r5BnMY2tsEuYyzbgDnlA4wtwMYubGMbsItyuaqrXNU93ROxMRs7Ex2xMz0T0xOz0TEz0RsbG9vbEzH73chXeqUXEKcxFiJ/UCR683ryyeeTz5P5vnr52V/8xV+Af7gOuA1Ejg38jE9m5Ewmn0s+l8wGONQ8UuGRWoTZwIFDTYgS5+q1GI0nIY2FEBXGOyn+6vTP8ZvurcuxFYcQgo5qLVYLlVCR0O0dtHfai3wH3fdu2iNEj7LRH/H49U9YWPkB3ifPcLWvBjbV4ehHnBeNHY6+B/Asfov5pdcYvd6DzGhVyPnezZj2W4aQWFROvoWnJ+/Q7EOTVY3s052bPlndLsTF7m0OdDlncXV2DbPL7+E5k3lg+jt0qKUJZPCfqdsZ6s4aitdFqkObtL3IJ5U9zFSC+nKFFkSphj6mAK7b73CjKfbAjGKn8SR0PsW90S4kRVHQKDuyGq6ho+zw+pfkI8SGKs9b3DqX/9Hsg6iikd48hq6yqE36NZW2ISlLv+l6ZsckXI5EaHZwRPlXv8E1VyoMGuWmNqQx7icNa6j3M6CDqrObReeg+tpLO3KopXq29kXM9BUeqGFIbW9MmV5OXPsBI62Jh9Lfxv4P6zsbpzG9BT3TLzDUV4943WYvvBXUaqsDzTefY2K4BzlW9ZZ6Kri6glM5m9v90DFugpoNhoXPwxlq3KnX4ocOLVar1agw+Dpn4elUtwbtNChMWp4Wb4t8q42vPsV0PqtP8b5DixVZfUlgVi6Up2bXLzb5wnMpRL8YHeyL1Wdl8jLUmG/S4n0nxbeNWpyLVUK5w8oo73un+lvJx9rQGFToKdZipY3ilx1aLJWpkKsJyqg2qTBYrcW3HRS/bNfi4Uk1cmX62ilfkjNUKoeaKLUwxjvRPbOMM4VBj6GOcaC+3wvP4neYW3qDsRunkCIzSlV8DbonlzCz9D3mnr7AtUutSIkKeguiS0HJhXuYePIOs89WMDZ0CXkxwfDaeHIId5eW8MWpWiRHbTbaneoTayeGZ3qQlNqC054XuP/qB3inepBACIjtFG5+OYQcmT6JtQPDC9eQoSIgxI6WB77th7gFWV1CS1JQ90xnRBmN1IbrcHtX4H35HWbu30JDTnTAPnaUT5+G0r6HuDUzhqqMYL2N87EV1KIMhMLmvIzrc0/R5ypAlHq9jKxM1qVlnC3cfH1jP3v9vgXUFN8wEKOU0GuVqC/R4n2lGtFM6buEeqv6koDbQSMvc82lhRxqVi89R4v3zRq0WAmMaoL4WDW+SFfuGO6wdndbfzv5bElq9KcqkaxTQqtVorFUi1d5QSicxRSrJ1SwqAgMeiWcGWrUmIKTt1O+NP5QqQQ1M2ifUf+A24PtSPIvuqyOxdmL1uoixEXroTHYUeJewURXasBj5Pa/g6fPAZNGA50lDblNZ3AiTlqUTShwL2LAdRI2E4VaE42E8hF4PG3i/Es6NGY0oePmErwvV3H9YjMS/YsGIbuoz6Beeo1JzzWUZthANRTGaJMYQhNigGNoDQPV0aK8bB6SzyxhrD0pIL+kF0Ky0fV4PdSEqJHYvgCvdxTOTBv01AhrTitc9ZlQi/a7s3zm5nnMz1xCimwhlvqUp9tBLZVTxjbh6rOv0JUVnH+2bdJZ8+C68wbducHrUp0PTbeAev1el5jUeNGhQemuod66viTwdtDIy2yGWgW3S4thWxAiqfxuUrYo7ab+dvIRFYEjQ43xCi1eurR4f4ri12XBfX+UTY2FJi1mijU4n65CgYEEvASTcaf87cYhQS3uqYkKGmM8MlxTmJo5h3h/pEI0NmQ1XMS5m/MYf7QG7/J7PLpRE5DBkNuLGw+eoL//MhrrKpAWqw/kEV0DBlaCnjCweLwaRd6GSIjpSJdQjlbPGh4M1sLI7GMX9UVPvXwPpbKFSD5mVdYA7s70IJa1pynG+cf34IzabPyhoc5B58LXOJ2/OYJgfexGPqU+DU7mqe+NoDI9KqAbuYzs7+2gJqKn7seN+ae4uMFTs0VjYfUHTI22If4jHHDuDmqzGittahT6ob7TrUWnLJxLz98Yfm+A2qzG6zYNCmRGwQzi9I4HZUpshlqJ/mYtBvd40ihNCOt3N/W3ko9dbyjXYrVcjXqbEnY9gTlVi9+Uq0RPEOhHRWC3qtCSqcatBi2+zFHuKV9qZ2Mqh1rKI+oqXF65D6eeRVImOAbX4Bk8C0deBmLNJphqprAwVLfuMImojYjNcMLZ8gX6pl9iqC3T5ylFKB+ixroZIqk/pXL9gkqS++B5NojMANTb1xehfjW2aZGQ2ickDvV3V9CVpYaxegp3+ovX6S5YLpSnTkPr3Bq6c9bLGKizi/GxsmyejekucU892LuPPfUI21OfC7mnJkoN9LEFcN15je7D21NTrJSqkKsj0OuVOFNJsXZSCSpCrcRVlxbeTCWMKoKkRDUW2uimPfXrMjUK9L7656q1gfoB5RKC+nItXhQqEaVSwmYgmyaOKTYU1Nn5Wrxv1KDRqoRBTWCzqnAlX4UY2aIh9bMxZW3upj67nRZKPlafefqxRCV0KoI4qwqXqoJQs/yuUg3O2VVI0hFoVEpk5mjwq1o1LH79bZe/Ud6N3+VQs6hDY7Ijp8uL+94+JIrtZ6FjYQU9jlhoNUZY0qvQMr4agJoo7ai+OoqGkhzYzHoxvLa3ezF/qwMmsX4UCt1vcN/Thzx7NLRaI8zp1XDmW33hsCodrjtf4mxtPix6DdSGRORfWMTMcL3PU5Pt67Px7AQ1K6Mv8+COuw2Nd57DlbwFoFuE38mnFuG9P4SSjFjoqAHmjFq0na7xbx93lk+uc6IyI71lHF3lezz9Lt759Duz7xV6DnNPPetQY8FF8b5di8fFKqTJDi5siWp86aL4ZacWi8VqZKZqNkCtxXiuGo+atSHrS0rTWtR40KzFT50UryvUsG+AMhTUolEolXBka/C4meJ9F8U3DRr0xJJ1nkjqI1RKdlk/lHwM9ji7GosuLX7VqcVypRpN6Wp84/fULD/KrMa1Si3edlL8ih0U1mjQYvZ5vp3yQ8krvyZB7dtPv8ccO8i62Y8T8b5wk+nMUnoNwwvvMP9yDRMjV1BSP4Rpv6dm+YbUJnSNLGJq6XvML63B4xmEM5kG9qziQdK5KYwtvMXs0ht4PCOozbEEwlCaUIPO0aeYXvoes4vLGHZ3I10WHu9UfzdQE3UOuuZ+gNfTiqgNdiHpI1T4zfKIKgZZrSMYnH0D76vvMH1vEvU5loB97CSf1P5O6Xbh9051WX6he/UwT78pbsZtHX7tRmBehj+yyG1gexs4tPvUbCXf7okwPlHbTxTXD9fPbm1Al9MD92E8Ucah5ka5W6Pk5cLTVjadfvOJCs+J4vPC52W3NsChjrBf6Ox24nm5yF0kONQc6sCpNwc9MkDnUHOoOdQRZgMc6gibUO5tI8Pbfsg8cqg51NxTR5gNcKgjbEI/ZIXndSPDy3OoOdTcU0eYDXCoI2xCubeNDG/7IfN4ZKFmP4y4MK/A8nUi/nrsQ5TwseoSIqBxXIFHZ3f/Y5P9yBLfqsDSRYF7XL5AizYQllAzGFJrBNz2KrDyXIFHkwJKYtb/wISkCJgfVuDGQwEl2vV5uwGDJAl4NCFs+Qug3bSxUxk2jqZJBRZ6ONQ76YrnH1yEEXZQMw8cXy/g2X0BtRkEBh1BQpGAu0NC4HU6zABSuhSYqCYovqLAdcc+oM4R8PwjQ31Yhhrn4p76sHR9FPoJP6g1BO4FBRpkb94gaoKWUQFO/6tfmAc8PaNAUxSBxiFg8UrQE7K84WUFGmTvBEvqVGDxnA98YhbgeabA62UFvl4RAp81rwJJ/t/tKs0COt0KPFlU4NWCAuM9AuI17K0iBK7bClwp8P2dWS/gfKmv3ag6Ac97BbD+u+8H215bFtBtX7/oEKuA6WmCtBQBlycVePFCgeW7JNA/0RFUn1dgbkGB5UUFvIMCTsoiFZWV4MyQAk+fKbA4LeDSdYGH3zz0Dmy/wg/qDAEPr/ogpXYBfcMKPFsU8OK5Ao3+H+KTeAFej+B7k4hWwPAjBYr8b2vcCWpppSUlCqyF8NQM3NbbCnh7BSQaCPQxAjrHFXh8QYCWEGT0CPB2+KC+cFuBp+NEfOPHicsKjJRvgJcI6Hu0BdTPFJifVKAmXYBOQxAV7XvzC+u/5KqAcRdBgolArSFIKhPwcEKAVXwzCUH7HQXmviBINgkwJgg46+GeWppXnobhv91Rlgh40C6AKAVc8irEty3qlAQN4wKa/K8KjmsNekLmbdeWFejP93viHTy1NOlbQh0jYOaFAiWyF8KJ++8nCuQSArVDgeWbBLpYAdODCvR7FShWEZx+IKDNtgeoXypQE+LFe0QnYGJDFCGO8YWAEwzqGAH3Xwgokb1ylh+UHdx+VLKPo5yGnadWFiswf0oAoQLG5wWcNBPE5AuYfuqDWvKkPalBgCxNCjzrE8TX7TBPPbQsoNn/+iA2OcmnhED4LU0WcSjwlWf9Pp3lMWhmlhQolkHDoH74pSBCTaIE3P1SQHGVgJlWgvLrClwoIJhYEJC94bU7TJYtPfULASc3lBf790Ptkm0/JJnFfBalPBdwQhkcP4eaQy23kbCDmp1qP7xBxHd453ULePZcwOMRAWdu+KG2CJh+IiBPZtQkUcDDxwrkKH1h8fl5BSabCAwagoSTAm4/Ce6ppcGTZAUWninQnESgURNY4gXoxfBWEMPbBxcIEgwEOitBx6iAJ72C/8WLAnpmBUzcVOBCBkF0vYD7wwK+vCFseu/4vqAmBKVuBV5MCDiZKIBqCWLSCWqlSERNcGFOgTudAmJ0AizpBAP3efgtzStPwzD8JioBl+YENMsOhuQTZa4XsOwW1r15lMFzcUGB3kyf94pxKDD9UIHV5wrMXBaQWh3CUxOCgi4B80985R5OCsj0e2elRUCXW4EvFxVYXlBgoocgwX/bjEUKjisKvHnmC7tJggDvKwWmW4KeU5J3P1CzuuygrIrt3R8qsPxMASabKzv47nBdsgD3bQEvlxT40iOgoVuB5/w+deCgSNL/cU3DzlOzibBWKLD4QEBtGgHVCLCkCKjI5g9XHFcj5ePe2/YiLKFm3jCpXIDnge/hk4fjAsq3+Ne4fML3NuFcX5Gvr7CEmhte5Bsen+OPN8ccav7QAt+LRpgNcKgjbEK5B/x4HvCo6JZDzaHmnjrCbIBDHWETelS8CZfz40UUHGoONffUEWYDHOoIm1DuAT+eBzwquuVQc6i5p44wG+BQR9iEHhVvwuX8eBEFh5pDzT11hNlA2EFNiB5loz/i8eufsLDyA7xPnuFqXw1sst83f8xVnpBMdDzy9f9o+R2m7t/Dqeq0Q3u5oSarGtmnOzd9srpdiIvd/KORveqCECvK62bR+okeuyUkGQ0tj3Hr1BN4Omcx2OBGc0qi+AKKvY6Flw/t7cMW6ssVWhClGvqYArhuv8ONpthD8Sg+qJfRlkagMsTCXtyLG4vf4Gqt7aP0T1TRSG8eQ1dZ1Kb2TaVtSMrSb7qe2TEJlyNx0089d2Pk4QH1XdRZCFQaM+ISXOh1edGTatk0zt2Mh5fZDHZYQy1NmK19ETN9hYcy6XKopf4N5bfgXbiClBAvNZDK7DUlRAljegt6pl9gqK8e8brNXngrqNVWB5pvPsfEcA9yrOo96UWC2hW3ub+9jmE/5X2e2ge1VF+fdBljLZ2wH6R+1SrcdGnxbaUKcQfYriRzOKdhDTVRamGMd6J7ZhlnCoMeSx3jQH2/F57F7zC39AZjN04hRQaFKr4G3ZNLmFn6HnNPX+DapVakRCkDxk90KSi5cA8TT95h9tkKxoYuIS9GJeaHgprQBgysPkK1xQfCTv0rzYVouvYId55+C++Tpxg4V4VYTRAiok9Dad9D3JoZQ1VGtPjGllBGshXUrCwhFDbnZVyfe4o+VwGiZG9qCdWWdM0HtRfduU3oqpvCaNt9uCs7kaX3jZ+VUxtyUO64DrdrDhNt99DvrINdJr/K5EBLlQfDbQ8x0XoLF05UwU5l+tUkoLDQjQGXF+NtU+gva0Omv/1QUBN1Kc523USp3q/fHfpX6jJRWXoT11tnMeqaxNmCE7Bu2J4RtRKjLi2+q1JzqKXJ/1SpfE8t7qtXf8DtwXYkyd7nZXH2orW6CHHRemgMdpS4VzDRlRqANrf/HTx9Dpg0GugsachtOoMTcT6jI8SEAvciBlwnYTNRqDXRSCgfgcfTJr6COCTUpBjnXiyh2f9W0O36JyQRdXe+wVhfOeIMOuhiCtA0uYZbfQWBcNncPI/5mUtIoUHQQ+l7O6il8srYJlx99hW6srZvSyrvg3oBQ5UtyIoyQauNQ37xbYxVOGHwe7Rouwt1KZmI0VGotTYUlNzFQG5iQL8ZDi/cRTkwqNSg+kRkZDQi1yjp14DsknGczcyGlWqhUplgS7oAd1WV+I71kFCTXLS1e1Dlf7Hkdv0TYoOzxov+okLEaCmoPgOVVfdxrSgjoF9prMc1DW9PTVTQGOOR4ZrC1Mw5xPuNjmhsyGq4iHM35zH+aA3e5fd4dKMm4PEMub248eAJ+vsvo7GuAmmx+kAe0TVgYMV3EMYWDemz8GoUeeLrjNhBmW9PLRkF0TXh6uo8qvzvPduufxLThZuvJlAo8xwkuQ+exWvI8Muv1KfByTz1vRFUpkcFZJP6k9LtoPZ56n7cmH+Ki3v21OsPyoixAVfazgfkIyoL0tJb0VY+hCvNMxjrXIDH6QjIqY91obdhFGccHahIK0KSgQbyfF7XdxDGDsOkj6ejV2w/JNRqJ3q6hlHij7a265/oa/FFx0Vky19nFe2C23UayccszJbsZGMa1lBLwhJ1FS6v3IdTz95BZoJjcA2ewbNw5GUg1myCqWYKC0N1UMkmlaiNiM1wwtnyBfqmX2KoLVPM90H9EDVbvdhPPP1eD7Wxagqz81+Ie76d+hehfjmOAlk4TJIurIOajcu3p3aJe+rB3n3sqUfYnvrcvvfU8tNv4oeCvfecEAPynTNwlzUh35YEi04PQ+pVeMqK1+tXpYfFmo+izHZ01t3Gxexkn35ZKN05HAilpTmU0lBQG1IGMN7cLobJO/UvQt3ehyz5oumX/yDPPCR5j2Ia1lAT5qlNduR0eXHf24dE0eiy0LGwgh5HLLQaIyzpVWgZXw1ATZR2VF8dRUNJDmxmvRhe29u9mL/VAZNYPwqF7je47+lDnj0aWq0R5vRqOPOtm/bU4ul36SUMLb5Ff2WMP3+H/okd9Xe/wWhfOWwGCmotQOP4Gu70FYW8bUNUZqS3jKOrfI+n38Ufcvq9ALezCkl6HbT6dJRX3sf1oiwxfPVBN4XWBDM0Kj2iLSdQXTkVgJqFvyUlvShPTIVVR8XwOj77Oiaqa8TwnRAjckru4WaVC5lRRmjUekRZTqLIFu3XH7ulFTz9jre34aLLizPJZln+9v2X1/rCb6tWC60+AxWi/Jnrwm+iVOGLRopf1KmRKlvsjyKke5U5bKH27affY44dZN3sx4l43ykv83CW0msYXniH+ZdrmBi5gpL6IUz7PTXLN6Q2oWtkEVNL32N+aQ0ezyCcyVQ0GqYg8aDs3BTGFt5idukNPJ4R1OZYxBDSt6cO3qeevn8PXZWpASB36p+1r7ScQNO1Bdx59p3/oKwGtn38v6/twu+9TrRU3rennkRbzmn0Nj3AWOsd9DnKYPMfhLHxRdtP41LLLCbaZzBQ0YnC9HMY8ntqlq83O9FYMY7B9oeYbJuBu6oHRdHaoH41CSgoGMCVFi/G2+/BXXUezljfNsO3aATvUw81uNGUHFygdupf1K8+G5WlI7jeOocx8aDMAassMmJliFIpQv3rbi1O+Q/gJB1Eehp2UEe6wvn4Nt9X/Vg6YWAPurSolYXqH6uvcGqXQx1hjwjuxrisahU85iiwlJWPtO9sTAzownwNlopUgShrN7qJhDIc6mMGdaZWIwIdqakEpTpGjeFsFayyU3IpL9JTDvUxgzqSPbQUeUQ6tDuNj0N9zKDeySB4/uHt+T+WrjnUHOrAqfXHMjLe7uEuFD/7+c9/Dv7hOogUG/g8JwPbfSJlnNuNg0PNF7WIWtS3A5rlbQdDpORxqDnUEWXo20H99ddfg30iBd6txsGh5lBHlJFzqH8ODjWHmkMdYTbAoY6wCd0qJDuq16m1GKfGb6AwigYWH11qDwauNyFeH7wmjY976gj01JRS9DZQjCdtnnA28Sx/sovir07/HL/p3rqcVLa7huL1CQo9Dd2eZEyfImVj2Y18aXkUvygJP/l30hnVp6Hx9hJ6yxKgk+mf0mhknHmEiUslMMmus/YkqM3Z6aic1ON3vxPwH//+GX47lSTup4/FnrqgoADSZyclH4X8naCWxsDKnd8GflaOlTldS/HmZPhCvRv5jirUCa55ePo3gyvOjS4NTXdfoCvXEPDg7HoQ6gS8+qfP8Of3VuQXponXj81BmfRgAANbMvijnB4k1EdZD3LZU4+gp6Y0G+1zj9GQsHWEYSybxJS7CkaZtw5CHY+v/uUz/O/l+ADoHOpPtNeUoBzNpphqoPihk+J1DUWNxTe5LP9eN0WXKTjZ2YUUbx3BfBZ+3yvy1X/fSbEqqy8ZO2snlKdm1y83+8JzKUS/HBvsi9VnZU7kUDxspmDtf9tE0ZtA14WIUj8bU2qheNZKUS7bD1IzxaKLoljn60cfRXGxnOLrDor3rRTekxRp/vK7kU9vphioonjXQfFNI8VQxd7Cb2NqEp57q/DHbxvx57dV+C9DaaiK1QUW/aikeNwaKcXvv67Hn9/V4u9uZ6DK7Nd/cgZ++6YQrbL5ofZ0/O1qARoN/jLRVvRfK8E/vqnHn97W4O/u5qArKdi+qOPEMxjzXkSSDNhNujQ14uriEHJlZYJQJ+LL//4Z/vyVjUO9UXGH/Z0ZLYPyXS1FTQyF2UTR5KT4sYoillIRqN1AvVV9aTysn1BQS/ksZWUGWynkULNrOfkU71so2uIprHqK5ESKK1l0nceQtyP/m9VvrqDwZvgNnFIUnKB4mR/8zuR6WUyRYaKwWCgu1lB85aCIkhnvdvJdaKBYLqXINlHEWCkG6vYGdedIPf75RjySTTrEJljR2ZWJ86lB6DLqszHvikdRvB7RMWZcnqzBP/RZRegpNeDi7Tr8ymX0f6eo6K/E35+3BPLPTlbgV2fiURCrh8lkhKOxCL+fS0eabHy04Bpmxls37ZnX6/IEzi5Oo1x2iMagtuSnIq/Lgr/+l8/wr4sJxw9qFnazEDxcwm9m9BsPuqiV4mUnRcUeoJYflMnrS0bB+tkv1DdaKUYTfRBK7e0l1SdQfN1ERSOmegpPKw14NtGTd1HU+r02a5fGUrxuo3DIjF68HmrRMVM876Kok9Xf6546viQb//VZOX66mYs7bXbUJxnWRSHUFA1XRw7eTDvxu+U6/J8fmvCft5MCh4mGE3n4w2IW8tl8mRLw1esSDPijHWpOwa/fNwE/Na///KIInbLxMajvj7t2B7UsKmBQ96wKwB8V+L+/NeBydfrxgzrc9tQhobZRrPqNmuVPdVOclq3OOUWbw+91UNso3myAgrVzrn7n0+9QnvpqC8XwB0AtLSiDCRSxGRRvS4NeXoS6k6JGBiWDerWdolhm9FtCzRbALopKWf29Qi22rTcirzABA2dy8e7Lavy3c7FiJMI88aU7dfjnO5noK4lBXrwR9tZi4G4yDH75KI2C53E1Fk9QJLqK8YeRhECU4YO6DGM76I9+QPjNPHVhtxl//T8+w789PYaemkFtNBpFT63TBUMsNrGf4iNBvVpGxXuT5miK89UUayW+8JPlu10Uczm+0Dc9heJJ22ao31RQOKIpWP3e2mB9aUysHRYGvzxJEaOnsJtpwCjlZUJBXVBE8b6JwhVHYTFQJMVRuIsoEjZAJ7UTKrWmU7wto7hYT9Ev27MzuVj4/MLhC7/NZoq+GoqviymiN7TPym6ST0dxw0XxpJDCbqBIiKOYbN59+E11ZoyMF+F2TSwK4gxieFx23ok/z6cjWYyUYvFkpQava6JgMRmRlW/Hgwc166Bm441rOIk/TKRjaqES3uxgVEOpET2TNfhfc9noyjTBEmVEZn4SBkpN6+wtcFC2DfzsoGx6y4OyY7ynNhgMyM3NRVJS0jqlhjLEw7jGDJWF3/MlFE9cFD+2Uzxh+0P/IQuTwZ5KsdhK8ctOiqdOirzMzVBPFlAstISuL43DFEfhbaH4qZPiTZUvHJbyWBoKGvG6jsKZR/GkheJ9F8W7RooLiXu77UV1FEOs71qK+A2w6qMpLpVTrLVTvG+jmD1JkS4bvyTjVvKZYyk89b5Dxrd1FJ1FFN/t8j41azM+NwWL0xX4t3eN+I9v6/D7uQJczfbdOqJUh6y6AvztagP+/F0d/nE6D/3thfh3macWdaSPxdOXjfjTbBpSNoyPRltx2V2Mv1+pw5/e1eCf5goxeTJqXYjP2hBvaV3e7y2tY3z6zYD+/PPPwwJo0Rj8UI/ag6u7ZMQ8/TTR06fS+4c9fCLdp45BTr5vX31sbmmFE9ByqOV74k9lVLzfT7+IUGsJTo0PhnhMtHnbx0QDT5T9wzF8oizcDFcKvznUnx6ocLON3cgj3acOlR4bT70bRfEyHLCjYgOhYJaucag/0en3UTEeLmd4LnQSwFulx2He+E8v+eIVNoekBwHcVjBL1w+ij3BvI2zeJmoymfhbLfmbTbkNHIANcKgPQInSU3k8PdxX4XJ9h9Y3h5pDzb1jhNkAhzrCJpR7r9De6zjphUPNoeaeOsJsgEMdYRMaaR6JmArRMepGjo4EFh9l4mn0u+s2/aP5SBv7fsfDod4ANSFWlNfNojU+aET7Ve5+6hGSjIaWx7h16gk8nbMYbHCjOSXx2O9JA2sAAAnqSURBVP2PZaY7orKj7tZznHfEQEmC80GIHimnHmK8rwhUdn0/+o7EOhzqsIT6LuosBCqNGXEJLvS6vOhJtQQ8VSQaYqgxxTTNwXPpREhwidKO+jtL6MhQHzu9hNKV/BqHeguoXXFBzyBX2Mf+2+epfVBLfemTLmOspRP2Y+SVCEmDa3YBtdat50FTPIa7V8ugCaEXolbhpkuLbytViAuRL+k2ElMOdUiovejObUJX3RRG2+7DXdmJLL0q4BHUhhyUO67D7ZrDRNs99DvrYNcEjU9lcqClyoPhtoeYaL2FCyeqYKfKQH2iSUBhoRsDLi/G26bQX9aGTH/7oaAm6lKc7bqJUr2vj536V+oyUVl6E9dbZzHqmsTZghOwqoLy7WTIqvgadE8uYWbpe8w9fYFrl1qREhWUXx3jQH2/F57F7zC39AZjN04hxb/nJbZTuPnlEHJk+iDWDgwvXEOGXwaiS0HJhXuYePIOs89WMDZ0CXkxQf0y+UjsKYx6L2wLJNHW4sridWSEgJaolRh1afFdlXrbNnbSxVHM51CHhHoBQ5UtyIoyQauNQ37xbYxVOGHwG0+03YW6lEzE6CjUWhsKSu5iIDcxAG2Gwwt3UQ4MKjWoPhEZGY3INfqgIMSA7JJxnM3MhpVqoVKZYEu6AHdVFaIIQUioSS7a2j2oivKBuV3/hNjgrPGiv6gQMVoKqs9AZdV9XCvKCOnRQhltbv87ePocMGk00FnSkNt0BifiglBbnL1orS5CXLQeGoMdJe4VTHSliuNn43MMrWGgOtr/XYnkM0sYa0/yfzehwL2IAddJ2EwUak00EspH4PG0IVoGJ8lx495oc8jQW5KZkHx0L06hhO5+wZLqRnLKoQ4J9fqDMmJswJW28wGPQFQWpKW3oq18CFeaZzDWuQCP0xE4zNHHutDbMIozjg5UpBUhyUADeT6v6zsIY4dh0sfT0Su2HxJqtRM9XcMokbzhNv0TfS2+6LiIbGXQ0Em0C27XaSTLoNnOqA25vbjx4An6+y+jsa4CabH6gPysHtHYkNVwEeduzmP80Rq8y+/x6EZNoIwqawB3Z3oQyxYpTTHOP74Hp39BIroGDKz8iMevf1r3WXg1ijyZfAzqmdGm3UGtDY51u3EdlzwO9W6g9kORJHpSA/KdM3CXNSHflgSLTg9D6lV4yoqhkhulSg+LNR9Fme3orLuNi9nJYr4IdedwIJTeaGihoDakDGC8uV0MI5kn3K5/Eer2PmTJwm0J6hSZfBv73fidqI2IzXDC2fIF+qZfYqgt0yc/McExuAbP4Fk48jIQazbBVDOFhaG6wPgJiUP93RV0ZalhrJ7Cnf5iqP19+6B+iJpt9spMlg8NvzeO5zh951CHhHoBbmcVkvQ6aPXpKK+8j+tFWWL46oNuCq0JZmhUekRbTqC6cioANQt/S0p6UZ6YCquOiuF1fPZ1TFTXiOE7IUbklNzDzSoXMqOM0Kj1iLKcRJFNClfZLa3g6Xe8vQ0XXV6cSTb7w1eWv33/5bW+8Nuq1UKrz0CFKH/muvCb6Ipx5uE7zIy2wCKDnZ0qV18dRUNJDmxmvRge29u9mL/VAZO4qGWhY2EFPY5YaDVGWNKr0DK+ug5qBpC+zIM77jY03nkOV3IwdCckCoXuN7jv6UOePRparRHm9Go4863i+CT4AgdlMVt7YXZQNrXVQZlShS8aKX5Rp0aqbHxS+5GccqhDQj2JtpzT6G16gLHWO+hzlMHmP/ghRIlo+2lcapnFRPsMBio6UZh+DkN+T83y9WYnGivGMdj+EJNtM3BX9aAoWhswWnZQVlAwgCstXoy334O76jycsVFi+OpbNIL3qYca3GhKTgwAuVP/zFiV+mxUlo7geuscxsSDMsemBzWIrgRnH32LmTHXeqiJEobUJnSNLGJq6XvML63B4xmEM5n6FxUlLKXXMLzwDvMv1zAxcgUl9UOYlnlqJgNR56Br7gd4Pa3iWYEcIvGg7NwUxhbeYnbpDTyeEdTmWALhu1RWvKV1cX+3tIhSKUL9624tTvkPGKV2Iz3lUG+AOtIn/CiN70MfPmFgD7q0qJVtRY7S+PcrK4eaQx2IIPZrRB+zHjEVoWP0WojHROs3RR9yORjQhfkaLBWpjt3TeBxqDnVYQy0HdS9/q2PUGM5WwSq7C7CX+ke5LIeaQx2RUB9lKD9Udg41h5pDHWE2wKGOsAn90FWe1z/6L1kIG6glY5Le+rhVKpXj6dE3Pj6HH2cOOdTcU/PwO8JsgEMdYRPKvd/H8X5HSa8cag4199QRZgMc6gib0KPkUbisHyeq4FBzqLmnjjAb+JndbodSGfwVzadePdmp94WvFPh//yrgf/6WYv5CKuQn4Z9aPt7/x/EuXK8Hp1cR6szMTPGfpIWDYhnA7B+G20risfp3nwE/xiApOz0AdjjIyGU4OAPkujx4XYrh9+eff46CgoKw8NiSVzZnJ2H6rz8DfmNFBoeah8gRFiJ/zMUssKdmUH/Mjnbbthzq2b/5DP/51gYrhzos5ma3c8jLHbz33YtOwxjqFEz85jPgb0w4XZ+KuBxfCL6XwfGyn9a4uP4/jf5/JnloKf3UEyF5apbau8347e8/A/6owN/cThb31Z9aPt7/pzFUrvfd6z2sPfX4XyqAvzXiXFMK4nO5p+aGvXvDPs66CmOokyDtqS18T8331PygbNc2ENZQi6ffv+an38fZ6/Cx7z06EffUbD8dTntqdp86xhGPZX6feterMzf+vRt/pOos4KnDZYDsgMz3RJmCP1HGQ06+qO3DBsISavkJ+Ma/w2Xx4XJwzxiuNsCh3sdKGK6TyeXiCw2zAQ41h5qHuBFmAxzqCJtQ7q25tw47qLlRcqPkNvBhNsCh5p6ah98RZgMc6gibUO7lPszLRYL+ONQcau6pI8wGONQRNqGR4Gn4GD4s2uBQc6i5p44wG9gENSF6lI3+iIevvsGduzdQZCV80iNs0rkn/DBPGO762wQ1E5gQJVQ6G066V3G90cKh5lBzGzhCNhASamklsrTM43oDh1rSB08j28NFyvxuC7WtfRED1Xq+Sh+hVTpSDJOPY/8L6LZQm1vmcetKFWxGLVSE7625oe3f0LjuDk9320JNospw1vsOC6tfoSuLQ80N8/AMk+t6/7reFmpzy0PculKDuCjKPTUPwfk27IjYwLZQsz31lSq+p+ZeY/9eg+vu8HW3LdTs9PtGk5Wv0EdkheYAHT5A4ajzkFD77lPH4qT7NYeaA80X9SNmA5ugDj5R9g537w7yJ8qO2ISGo+fgMh1uBLEJaj4BhzsBXN9c3wdtAxxq7ol5eB1hNsChjrAJPehVn7d39CIJDjWHmnvqCLMBDnWETSj3rEfPsx70nHGoOdTcU0eYDfx/Vz98PLjKXnoAAAAASUVORK5CYII=;" vertex="1" parent="134Ek7XrDGWU4xRJH-jC-1">
                    <mxGeometry x="70" y="120" width="245" height="146" as="geometry"/>
                </mxCell>
                <mxCell id="134Ek7XrDGWU4xRJH-jC-11" value="" style="shape=image;verticalLabelPosition=bottom;labelBackgroundColor=#ffffff;verticalAlign=top;aspect=fixed;imageAspect=0;image=data:image/png,iVBORw0KGgoAAAANSUhEUgAAAZ8AAAAtCAYAAABxl2ZeAAAUY0lEQVR4Ae2ca1dTyZrH++Nkb2/zdAIkGcI9K0BAQO7IArmICEi4CngBFbVBRVCRiwhCVLyAIBDR017a02p3r9Mzb88XmHlxzsxaZ82sNfN2/rMqyc7eCbl5IXbTzwvWTnbtqnp21a/qX89TFb7ZtWsX+I/bgBlgBpgBZiCWDHwTy8q4LoabGWAGmAFmQDDA4sOeH3u+zAAzwAzEnAEWH4Yu5tDxypdXvswAM8Diw+LD4sMMMAPMQMwZ+CjxkfdJqB2QsPhYh80VHRYuySg0yTE3WpYlNI/r8OCEjD1y7OvnVRuv2pgBZoAZ+DwG/MRHTOrZDRKmnTo8W9XhwYSEyiR1cs/s1GF1TIbdKENvlFDcpEN/tZoeq84QdrZM6PDwJItPrNqc6/m8gcbtx+3HDPgz4BMfWZaRdlTCyryEI7ky4vQy0kslzFyVYJJliPTqYR3m22IvNtxp/p3G7cHtwQwwA793BlTx2Sdj+KEOTRZVXOS9MlqvS6je47mXUKbD8ooOY10Scozqc0ojyHoZh0/rcO+hDq5lHZwjEso1npNskTA7K8OeJeH8hA5razq4ZmTYhLilSLjzSIeSfWq54vm5RQkH9gjxk9Azr8PLZ5L773uXhB6r+qywQd4tI69JwuS8DhtPdVi9I6EjX8Zub2gukn3Ke/CVBzYzwAwwA9vLgCo+uRIWhzxhLLJKODOqw8qyhLVVHZq9QiO8H2OOhP5RyT25T5+RkKX3CIBIqxySMO6QkZ4gY+8+GbZDEhZvSrAok78QnxUd7k/o0JAjQb9PhtEkY6/Xs6q9osN4vVpeTq8OznZ/gRFACCE688BffET9me06bCxIaMiVEEcyUvJl9B2Vsc9bfiT7GLbthY3bl9uXGWAGFAZ84rO7UsJChwR5t4RzTh16DsjQ75bRNC6hJeBQgZjoDekSTt7UYf2KhAQxuesl3HSpnonPQ1mTUKYVn3UdGuK2CoowaG+ehKVZGWmivH0Shh/ocCSYhxVCfAYWdThfGLzsaOxTGoWvPECYAWaAGdheBlTxOajD/eMSZJIwfl9CuVlGUpGE2Seq+Oze7T+xyzYJD5YlFGrEx6EJ2wV2njvstiahPMQJNSFq7dMSzuTJMNZLWDovub2WLeUEFR8JJ506DOb726jkVcQnnH3Ks3zdXui4fbl9mQFmwCc+cpaExSueEFVhj4SVVQmPrknou+IRH3mPhBPTEi4ekZFskLEvTkbFaQmrI17PR5ZRNazD2k0J5RkS6J9kJOXIOFKkikEk8RFAxlVLWBqS0DWtQ69NzauFNVTYLadbB9echPocGQYS9Us42SMj0Rt2i2Sftg7+zIODGWAGmIHtY0AVnz0Szt2TcExzQCCw4fXpEgbGdFhZ0cG1pMPckIQCTVhMbOjXn5TgXNTBtaLD4oQEh3bDX+z5hPF8RH3yXglnnTq4JiSYQ3pIW/d83Hn3yCh2SJgR+dd0eDLrOXCg/BYokn2B78vftw88bltuW2bgj82AT3wECJZaHZYXJByxy6B9EhKzJNTmSzH/ESlD+ceGkvuf+58Z2PkM+ImP2HOx1UiYXPD8yHRxXEJNWvDQF8Ox8+HgPuY+ZgaYge1iwE98tqsSLpcBZgaYAWaAGdAywOLD/1CQw6rMADPADMScARYfhi7m0GlXP/yZV8PMwB+TARYfFh8WH2aAGWAGYs7AN99++y34j9uAGWAGmIGvx8A/F+Qi3J8h1YCv+RfONpH2Keyw+LD4fhI4nwIb5/l6kxu3/W+77SNN7l9TeETdkez7FL5YfFh8WHyYAWbgKzMQaXJn8fnKHfQp6sp5ftsrPu4f7h9m4NuIngWLD4sPrxCZAWaAGfjiDLDnw1B9cah4Vccre2aAGYjEAIvPZ4gPEWGgiTBuo6ATuEif6Cb8S++3+LUn9HOik8SzPQ2E52UEAwUvL1Jnfmz6x9j3sWV/ieeJTKgf/4BHz3/Cw2fv4FxaxfC5JlgNX659Sofe4qojI2j/iXegeDuqB52YXH6L+2svcGOkH4UphpDPf4n3DlYGkRVHJl9h6nRZzPgIZsdv/Z69kPDnyi/DRyz4i9SeO5m/SOKjTzGjflIz/pdXMTzUDGua/oudgiu78hajx61By4tkn7bvTMWnMXzvJe663mPqVGHI+eGLHTgQk3c48VGME8+dDiNS4jnxTO8Rwovy2InPx9inPBvLqzL4LzYkgPRxMKdXoOPWm7Bi8bH2RRKfrJ4V3BnvRU6yEQnJdhS2juB4fWix+tj6o32eyIbGyVeY7v/9iQ+lEJ43EpJjsKjaDvHZTv4i9f9O5i9wcjcXZKNhLAGvb1nd+0GK+FxsNUKfGo/E/IPonH2DqyHE4lP2iMKJjzk/GxeWDbjdn4nk/Jwte1Tavisbfo3LHXkwx+tDCo94/jcpPtoXifXnaMQx1jaJ+rTio9Rv7V7GncGDYTtYeTaaazjxIdKj8sp7XO/M/mL1RWPTTnuG0gl/jpH4ZG+D5yPER+mTL82fUm6w607nTxEfc34O7O1JcP2rjP/4YEZnrX2L+CjCYju1jDtDlUE9FeWZj7mGEx9hX2ZbEn74q4x/e52IrsP+AqTts/LhTfQWR/a4feKjeC7X8wm3mwjvugjPGwgNiZ5CRPpcD6E7QS00v4TwqkJNF57PXKkn//suwqYmv2JcqMld3D9/zBOWU0Jz55PVukR+8UxZAWHxGEGU/0MLYSCdoI9yFRlN/lD2ifrjzYT+KsJmB+HnTsJaLaEkXrUxzkIYbSD80OVJf1BJKNG0V6R0pY2CXbXiQ/oEJGbWoW/ehZMVJt9koE85CMeVR5hZeQvn0gqG+huRobEvUrpWfMhgQ9XQEsbOHEKS3vOOiVXXcPvpGi70NSM3Oc5Xr2IvGfej5uw8Jpbe4O7KJsbHLqA0Qw3LUVoPrs33IyevHScn17Gw8Q7O2X5kEYGsJ3Bt6RqKNfZS+nGMPRpBgYFAZEeb0xN2cIceN9fQlqO2vbCB9MnIa72KS85NONff4s7CNI4VJ/v4iGSf8h6hrhRHcBwkuNoIH0T/1xHqNeOjtpKweZCQKN6HCB31hHt5Hj7JSFjsIvxyXGXczXkrId/Lb6Tyxfg6ayVcaiC87/bw36UZIwYz4bt6wptOwutmwtVa/7DbdvMXl16Nlu88Ydl7T/+E8asnkGtS+8iQ2YS+yTXcWfsR91bWcflCJ3KT1NVxpP7ZyfyJyT2xMgNXn+7Df/19N97fyoC9QJ3g/T0fIyxF9TjhdOFUvVkVn9xKOK55x//yCobPH4U1XROWi5CuFR99Wiaqrixh7GINklP1Pk/HXGLDsGsv/vdve/BuPg1FRR4btWOm8IILp7y6oL0f+HmL+Lw5QmhIIpgTCC3VhA/1nhCBGEzRiE+o/ErF4SZ37TMjbQSt+Ih8BUWE962E9jSCxUDIzCBczCPERyE+0eYPZ5/VThjaT+4BlZBAcNQQXCXq4KqvJjw/SEgzEBJNhPp8QpMl+nTl/YNdFfERE69n8n2HW6PdyPFNftlouf0a44OHYUs0wpRRAcfkS0yfq3C3D1H4dFGnIj5kzEPj9WVc6iyCUdO2YvVpKXCg+/oanOvPMXK+DdneyYXIgorLyxhqr4LVYkRcfDKyDt/A5FS3L8TkFp+nLzA5OYKaAzYY442wpFjc4kCUiOrRlxhqTHaLmqgr99QaxrtztoocFaP3sb/4EBmQ3f0IzrvjqCu0wZxgQVpJJ9pbChHnFoPI9gVrd+We4KKxhuA8QMhJIMQbCPk5hM1GQoYiHgbChWbCrWxCTgFh89DW8BplE34N4vlEKl+kC/H50ELoSCWYDITGasLPNR7+RXp/E8FVRchPICRZCN81+otPJD6Vdw12jcSfyJNadw6dRythSzEhPtGOmsubmOjN8/Vf6dAbTA1WIyk+HqbUfJQ6TqHS5hGfqPjZwfwJ8ala2Av8Q8KvY5m+yV7xiBTx8Rv/N44jN8sjLvoUO1ruvMbNoQZkZplgzj8Ix62XmB46iIQUPSKlCw9JER+9NQ+NE8u4dKIYphRP+Yod4ipCcJ1Pd+P//qHDy0FVfMR2gCm9DO0zf8KJUnXeC8aTuLdFfLQHBshCWO8i1HpXctGIT6j8igFikESz5xNMfK60Ea5nRH4ppS7tVdQbTf5w9pGBUJ1PmKgnbDgIH44T/lKr7kslWQmPjxEWqghn8ggVZn+vLFK61t7Az8rgd8fcyYD4xEwUdMxhdn4AmaJ/MvpwbWMSFZoDCJQ7iKnlERREkS7qc4tPXxM6pl9h0Xke2ZqytPYIYTBlNaBz6iUWRps9K31TK4afqZ6Jb5BsjKNUmZyF5+OaR41XMLVlis/6omHMzPe7J3OKr8HA43nUJm3tbwoqPsXoefQKJ8tUT0tbPkVhn/b5wM/CK7nb4++1uD2XbkKdRqCF97HoILxqJpQHab+Q4hOhfMGlEJ+JTLU9yEb40ESwiv41E1a7CY1eL1XYH7jns538ifoo3obCY+fRf30RNx96NpwfXG3yeZ7m0nO46lzCd99dRGtzA/IzzL60j+mfncifmNSF5zO6tg///ffd+Hk2HbmhPJ+UOCRkZ+FA3xxmnWeQJcQlvw/XXZOo0BxA0Jd5xv+BKNJ94jPQjI7br7B47wLsmrIU8RGez8XVvfifv+3B+zv+nk+KYxEPN99jdrwbmUHYDxxT4cUnhbDZTqjwis/tHkKvUYW/oHRr2M1PfFIIL7z5lYrFIDp1NPJpt2DiM9RKGP0M8Ykmfyj7xP3WOsLzOkKLlWA3EVL2E36tU8XHPQD1BHsaoe0A4VYzYbmI3Ctv3/tHSFeeC7xqxUdJI0MjLjxzos7sFZ/1Cb8Jj3LOYvKJRnzCpIsyhfg82FhDf20+yoY2MDFQhgTNxKrXqyES8bxb3FZGUSj4cE/uD3E0TeVDsVO5uj2fjZs+MVLuK1dxkKBl9hl6iwxIbJzFzHc1fm2nPhfM88lH5/2X6Cvxt9GXJwr7lGeDXd3ic5xwwhz6/US+xAzCegvhWSuhXhNyVcqkLI/nk6ZpV5EWqXxFfPzGVwbhfRPBJtpfLBSFEIYRH3c928UfWdye69ToaVSVHUBGShIsTbN4ONbiExh3/QYLMg7Uobb9Is7NbWC0q9B9YjEafnYyf77JXez5dHj2fP7zp/B7Pvq0o7j4zIn6TK/4iMWnRjD0JWcxtTICn/iESVfE54FrHQPNBSi/soGJC+UwajwfmyMJr/4q49/fmNEdZM+H9PEwZ5SjY+YF+jQRIYX9wOsW8RGhghIjwWwinD5M+L6S3KEXAf+wg3CvwBPyyskiPG7fKj4vagkVJk/+gSNqfqViUc6xWsJ6OSHJQLCa/SdnN6BECCY+xaWE9y0ERyohMY5gSyUMlxLSAwayUpf2KuqNJn8o+8T9yw7CRLYn5JGZSrjQoIqPSO89RBgQIRejJyxTWET4pZEgJppI6Vpbg33Wio8IMcVb7CjudWLh7iCy3eXb3WG3G+cOw5pohDG9HK0T32NmsNItIGLPRITlQqWLOoX4jB/P9YTBEorRteDC2UOpnjCYoQAdt5dxqrkMqeZ4xCVmo+zsMuavHfPucSSh4vILLEwNotSegoQEC1Lzj6K2LM0XdokkPsIGc/00Zi51o3XmKdpzQwhJUM/HgNy+J3AujKGmIAMmYyJSC5rRdbLJHfYjimxfsHZX7on+azxE+LGRUJ9EMHn5a7OqYkQmwpyD0Gsh2PMILxsIdo0YiLIomfCik9CbQkjQE9It6h5RuPJF/cLzCSk+esIVB+FxCcEaR0hPJUwcU8Nu289fEY4/3ET/oQwkxFuQlt+ItonnPvEhvR2Nw+M4VlMMa4rZHZa1d9/D/enjSHLzG75/aIfzp4iPchWn3Y6EOu3m9nzsKOl3YuH+ILLdYbUcHLvzGjeGDsOWZYIprwKtU99jZqjSLSD6lPDpivjcPL0fBlFeRgm67rpw9miae0/JfdrtiQGzA5lIiXDarXDQhdOfsudzv5LwWISUOgiPRfw4Th1c1mzCchvh5y7Ck2pC4f6t4jNRTHjYGjy/MpATUgnOVsJPXYQX9QR7gHiIgRIoPu6BqydUFxIet3o2XN80E/oz/D0PpY5gV4oyfzD7hE028f4Owi9dBFc9wZFHeOP1fER6UgphpJ7wWmwsiwMXjYT2FE/7RUoPZq/2niI+nv2e97gnNvSvD6EyU93416dWug8c3PIeOBgeaIJVs/qOlK7s+Sj16rN6cHXJiQabJ5SVkNWEnvEVzK79iLtPXBi7fAL5mrCYe8N4YA7jD1/hrtjbmbqB5uI038o3GvEhQwl677/D3cku96Sk2KK9Bgu7iXQypKOw8wau3nsB58ZbzN2ZREtJmu+3QJHs09YR7LP7QEA5YV2Mjy7Cs0bCKe+BF8HWqUbCnF3t77oqwkY5waThW3BwqITwrJ3wc7eHkTKvQIUtP4L4CHvNyYTJo57DQq8aCV2lhLfe3/lsN38iFJZaO4KxRz/g/vpLTFwfRk3LNcx5PR+Rbs5zoPf6Mmaf/oj7ay8xOTWKulyjujgRB1bC8LOT+VNEJ9RVu+cjQlv3VjcxPjGMqsJ49cDB/io4rj3GrdW3cIoDBxeaYMvQHDiIkK7s+Qghcv8V9WJ02YkjB+K27EEF2qkdLxWXnn/iaTfNSk5bIH/mX2kzA8wAM7A9DARO5oHffYKgCEOMr4H2BH7XcvHRv/MRK6NAt15bIH/eHui4XbldmQFmIHAyD/z+exIfU3E/Ln3Mfzhg8eEBwJMgM8AMfB0GAsUm8PvvSXyiZch34CDaDPzc14GT253bnRnYuQwEik3gdxafz/jHozxwdu7A4b7lvmUGPo+BQLEJ/M7iw+LjO5nDg+3zBhu3H7cfM6AyECg2gd93pPjs2rUL/MdtwAwwA8wAMxBLBr6JZWVcF8PNDDADzAAzIBhg8WHPjz1fZoAZYAZizgCLD0MXc+h45csrX2aAGfh/+JhNuRY6jLcAAAAASUVORK5CYII=;" vertex="1" parent="134Ek7XrDGWU4xRJH-jC-1">
                    <mxGeometry x="15" y="290" width="415" height="45" as="geometry"/>
                </mxCell>
                <mxCell id="134Ek7XrDGWU4xRJH-jC-12" value="" style="shape=image;verticalLabelPosition=bottom;labelBackgroundColor=#ffffff;verticalAlign=top;aspect=fixed;imageAspect=0;image=data:image/png,iVBORw0KGgoAAAANSUhEUgAAAaEAAAApCAYAAACcPJbDAAARwklEQVR4Ae2d+1cTV7vH3z9n9u5cTxIILJCIsFAJIIJUwUVQucg1chMVWtFqC5aLChJviERBrIiggD3Utp5K33adnv/pe9ZOMsmQC8GmgK88P7AmzMy+zLM/e3/38+ydyb+++OIL0B/ZgBggBogBYmA3GPjXbhRKZRLsxAAxQAwQA4IBEiHyBMkTJgaIAWJg1xggESL4dg0+mgnTTJgYIAb+lghxjeH0ZYbZHySsLkiYvsFRlsF3fDDjnKF5XMKzSxwK3/nyqQNRByIGiAFiIDUG4oqQGNwP1zPc80tYeSXh2QTDyX2RQf5gp4RXNzkKnRw2J8OxJglfeyLXd6pRRD1bJiTM9ZII7ZTNqZzUOhzZj+xHDGxkIEaEOOfIbWRYeMzQUMThsHEc+JLhwQhDBucQ1z2DEh6f23nRocbb2HhkD7IHMUAM/KczECtCGsfgnISm7IjIcJWj7TaDRwmeSz8uYX5Bws0uBrczcp9pDG7jqPtKwtM5CcvzEvzDDCcsnhTPZpic5Cg8xHBtQsLSkoTlBxwFQuRcDFPPJVRokXzF/Y9mGY4qQgQZeh5L+GmFBf7Wlhl68iP3ijpwmaOkicH3WMKbRQmvphg6jnDIoZBdsvqZz0FH6uDEADFADGwvA7EiVMQwOxAMbxn5DP2jEhbmGZZeSWgOCY7whpxuhq9HWWCQv9fPcMgWFAJx7eQAw7iX40A6h6pxFNQwzN5hyDZFQIjQgoSZCQn1bgabxuHM4FBDntbpIQnjtZH83Bck+Ns3Co0AQwhS/7ONIiTKP9gu4c00Q30Rg8PgcB3huNjIoYXyT1Y/gm57oSP7kn2JAWLAZCBGhOSTDNMdDFxmuOqX0HOUwyZzNI0ztERtPhADvv0AQ+8dCa+HGNLFIG9juLMc8VTCHssSw3GrCL2WUO+IFRZRMbWE4cUkR67IT2MYfCahIZ7HlUCELs9KuFYWP++t1M80Dh2poxADxAAxsL0MxIpQlYSZ8wzcYBifYTiRybGvnGHyZUSEZHnjAM8LGJ7NM5RZRMhrCedFN2IgHLfEcCLBjjYhbu33GPpLOJy1DC+usYAXE5NPXBFi6PVL+ObIxjqaaU0R2qx+5r103F74yL5kX2KAGIgRIX6IYXYoGLoq62FYeMXw/BbDxaGgCHGF4dI9hm8bOHLsHJqDo/IrhlfDIU+Ic1QPSli6w3Aij8HQOfa5ORrKI6KQTIQEmA4Pw4sBhq57Ei4URNJaoU0UjnN3S1h+xFDr5rAbonyG3h6OrFA4Lln9rGXQZ+okxAAxQAxsHwOxIqQwXH3K0GrZSBDdALYDDJdvSlhYkLD8QsKjAYZSS7hMLPzX9jL4ZyUsL0iYnWDwWjcGiDWhTTwhUR5XGa74JSxPMGQm9Jhi14QCaRWOY16GByL9koSXk8GNCeZ3iZLVL/p56f/tA5BsS7YlBvY2AzEiJIDIPi1hfpqhoZDD0BiyDjGcPsJ2/MuoBOfehpPan9qfGPj8GYgrQmJNpuAUg286+GXV2XGGU7nxQ2IEyecPCbUxtTExQAxsFwNxRWi7CqN8CWRigBggBogBKwMkQvQCUwqzEgPEADGwawyQCBF8uwafdTZEn2l2TAzsTQZIhEiESISIAWKAGNg1BkiECL5dg49mvntz5kvtTu1uZYBEiESIRIgYIAaIgV1jgESI4Ns1+KyzIfpMs2NiYG8yQCJEIkQiRAwQA8TArjFAIkTw7Rp8NPPdmzNfandqdysDJEIkQiRCxAAxQAzsGgP/uAhxLqOvUcftBK/54VzBeJeB/7vwX/irJ/F9QinF64M663SsVsgwXz5qVdDt+Pwx9duO8pPlyXk1Lr95jrOWF8zyihH473bBmeBFr8ny/NjrXMtHZf80fPO/YmbxLW5/34viDGXHIeY8B2cm3sHXW7ZjfHysrT6F+/OP6Hh/4p9pH87tqLn9O56//TfmVj7A/8MCBvrr4Qr96vJOPO9e5u9T6P9bbWNb6SUMPFnDk+V1+C4WJxwfdlyEzAcQYnXxbHIR6qo38PZLZccHma3Uz3yWnTx+ChAe6HqJR7e7UeA0YDjzUdJ0A501OQkh2y77cO5Cre8d7vaV7zgfqT4Tz1SxWq8gYwcmDtshQtdO6+CyCvu+Y/De+wVDLTvX/nuJP65kwN06hu4aZ6B/fQr9v7hzAt7KvLi/8WbtF+UDP+OG9zAcmrzp2PBJi5D1gXb6M4lQ/Li1sMvxGx9w61zepmDtdHv9p5XHczS83yERytsGT0iIkGlzV8c8pvorwv+b57fjuFf4E8+Z5m5D7+QSRvobkWsLvkD6UxAhNbsSrTdf4c5oL0qz1YTtfmxgBedLk7/4OkaExMOLcNpokYr7jTo+dOpYrVNxOvRT3CJc9bBHQ4cRybywTMe7L4NqF0xvYLJcpDew3qljxZLeBFPcF88TEuevtATDdWbI7krMz4rLKCtSMdOiY73LwK/NOvpyZMhbnFWKMpKlT1Q/UX/NoaC3SsdKu4E/OnUs1ig4qkXsoaYrGK7T8WungT86dMyeUHHUYq9k100bxTtuBUIltx49E4uYWvwNT18u4cbVczjkjMxGuO0QTn79CHd++AVPFlYwNnIVZfsi4Rqe3YXRqV4UHG7DBd8SHr/5AP/DXhwI2TftxAgeLC7im/MNOOiMhTCV/LnrPG6+GEGpxZ48uxOjczdQpHBwno+26WA4KBASWl1EW9SPHnI5A4ebvsegfwX+1+8x9fgumkozwnwkq188u1vPcU1Gy3ENy14Dv4v2P6WiJtw/OKordawcl+EI/IiiDO8ZHf7CIJ/cpuJpl4E/z0cYD3DeqqIwZN/N8w/2z69dMgbrdKx36/i1WcM5Sx9RHAqESPzcaeBdk4ahmo3huNT4C4bjgp6QjrRcD3qmlnGxwh4ejNR9lWi87odv/j2eLv6IsaHzOBQaRIUdU+Xzc+eP2wtR3T+Lu1NjqC2KcCts9yn0/2A9DLg81/D905fo9x6DU42Mf2ZfKbm6jEsVsefN6+YxgQgZ+FkIh1OGXZfReFLH+hk1EDrYqgglSm8WvNkgb73nhleHVYREOnepjvVWDW3ZHGkqR26Oim/cclL3UOS71fSb1c9VoOL6YRkHbTJ0XUZztY43ZZFB3lNlYPW4giyFw2GX4SlSUZ8eaYxk183nj3fcCoRHr/8CX38l0jUNtqxCHG25iOP7zUlCOo4NzuM77wm40g2oWgYOnLoFn689HBoKiNDiW0z4bqC6yAVDM5CWkR4OeQnbpBW1oPPmIvyvV/H9lVbkhWdqqeXPuQOVI2v4ri4jMKiJsg5eXMRYR0F4kDPtwvkRdD/fKEKcq8jrmIPffxueYhfsRhqyS8/B21gMNSAKyetn5h/vKOpzxqNjukRBgcGhKTIKD2pYqVeQY4qIIuNqk4G7+RwFxRpWquWwbc08eb6Gv+J4QsnyF9fFJHG9WYM3i8Omcpyp0vGHRwnwL673NupYrlJQaHA40xVcazA2rAmlxl9kTSg4CfiAe8MdKAiJsHi+LM9lnKv7Evsz7NAc+Tg5uII73YfD7Zcyn585f5mtM5iZuopDlolrmJstrAmnbF8xCd2k/5t1EUc5pwUDC/+N7pLI+CbCtLbsMnjv/4ieo5Hz1nTWzwlEaONaDU9XsdSpoTrQibfiCSVObxYuOks8T8i8Lo7inlgRUjDo1THqigz61jTJPgsR3Ur6zerHFY7KIhXjp3W89upYP2/gf2si61ZOl4q5Fh1TVRq+cis45uDhWbioX7Lrmz0D5yfx1et5NLoijcu/HMVTXwfSQoOg4+hlDE3/gOvXr6H57GkU5tjD5XNbE75biXgSYiAJDCZvbqPMHEQFhMuPUG0ZWOLVSdjIduAUzvnWMD3cECj/n8hfKfkOD6Z6A4M616rw1fNH8Fh+udesS3wRKkXX3E+4UB7roYl0W6mfmX+8I1cV+Hs2ejEBT6ZbgydkP5FOcaiY8QpPREV5nFliQhFKkr+weV+jgTHLxh++X8PvZ1W4RP90KFjo1lArR/iIXhNKjT+LJ8QVaGm5KPI+xMOpPuSa/GgulDRdQd/NGYw/W4N/eR3PhurDDKbKp9kunyt/sr0QHuEJPbqFM25n2G7iuT+V/s+58ISuY2jmJa5EeUJCROdWP+Dh7XbkbmHDytZEKFPFSruKipAI3e/R0WVxr93l0eG4KBHKVPG2XcMxSycVAF1IujEhngjJuN6qYzgn0slMKLdyFOVuJX2i+onzTad0rJ5S0eiSkW/nyDys469TSmCmbdZBCFV+toK2YhV3m3S8KJU/6rqZT/RRDLydc2s4XxoR4fQmP2aH6sOeikjD1TTkFHngafsG/ZOvMdJeHLgeHIRnUZ+d2H4BT+jNWFiUousgy5GyA2Ud7IdvYRjFgo+AyKWWP+f70fhgBd0lKtLqHuL+9aoNtjPrE1+ECnHu6Rp6LPYx7w/UdQv1s94f/TkgQuc19CQRaEeOiqVmHcutGjzxZrR5Kv5qUJFl6ROB+gkR2iR/wV/07lPuUrHeqGK/sL+YMHZp8GwiQoFykvAZ/dzm/+buOOuaEFdrcW3lMTx2ES5NR+XwGnzDl1BZVoSczHSk1z/E3MjZf4zPvcCfaOc0tzewJjR82bomtPv9P7AmdEusCfXFXRPisgZ7zjF4779Fz99fEzKwUq3gqI3Dbpdx8YyBtRMyjIAIyRjw6vAXy0hTOAryVMy1GzFrQm9rVByzB9P31enh9BGYORpP6ViqkOFUZLgcPGagEQ0R6wnJOFIeDEc0Z8twqByubAXflivYF9WhzbKsR5HnVtKL7eHx6ifSC09qLE+GTeHYn63gam1EhMT17moNffkKCmzBcE1xqYY/QwNOsuvWusb7LMJNhX1vMDXWjYJ0G2z7a3DJ/w5XPenB8JWcj7qB22g6WQpXpj0Qbsvv8GPmbifSA+3nRMXgj3js60dZfgZ0PQ2Z7jp4yrPD4ZLNRIgrbnjvv8ClhnJk2TWojjyUfz2PqdHGoCfEU8vffGZ7jQ/3B9vRfP8VvAc3ip55T3wRUnHw/Dz8j0dwsigHNsOBzKIGtF+oD4WTk9fPzD/eUbRfbbWB/6lXUeMMhsMEf22hcKdIw+0KJts0dKVz5Ls1rNUpyLeIQuCeDBVvOzV0Z8rQZRn70nl4DWmz/EX5m4qQEvT058pkuFSOfdkqxloi4bjU+YvyhNLzUdrtx2N/P/ICfJWgc24FvZU50LU0ZLlr0Ta+GhYhniKfe40/rmTC3TaO7lPm7rjd7f+C3cDuuKrku+OK+9+gN5U1oSeVKua8BtY7dDwX8WXLQrErT8ULr4E/unTMV6koPqxFiZCO8aMqnrXqcdObnVvPUjHdquPfXQbenlaRHyUiosNEi1CgA8syKo9oeN5qYL3bwM9NGnpz+IaZlllGvCPfYvp49RPitD9fxbxXx59dOpbPqGhxq/g55AmJ685MFTfO6HgnFqDFxox6DW2ZQc8j2fV49Y0+x21FODMwiwcL7+GfX8C3PZVwhgY5YTPH4RZ035rHw8XfMLO4Bp9vGJ6DRkRkxMaEvocYm3uHJ4s/wue7hYbSrLDbv5kIiboYB+rRdfslJhd/w5P5ZYwO9sBtCZcFFv5TyF+UwdVSdD/9AL/vXMLvP8UToUBaZR9Kzt3C8JMf4X/zHpOPJtBYmhXmI1n9ou0d/b/YONBcoWFJbEzoMrBcr+FCTjDkyhUZFxt0PAwJp2gPT5WO1xUK7Ba+xfmqMh3L7XqgH63UqygLhS42zT+JCIm62jNU3Dlr4EOXjp8aVLSXa/g19D2hVPkzPaHgetA6noqNLTev43huMPwpniur+gZG537BzOs13Ln1LU42jmAy5An9E3zuef52uf9H94dE/1cMrqayO87Azf2JwzWJCqXz8bc1k13ILsQAMbDXGPjb3xMSM5Vod3+vGY+elwYMYoAYIAZSY8BW2ovBv/PGBBKh1AxP4JL9iAFigBjYOgMxu+PIeFs3HtmKbEUMEAPEQGoMkAjR23PDGxaoM6XWmch+ZD9i4OMZIBEiESIRIgaIAWJg1xggESL4dg0+mjV+/KyRbEY2+9wY+H++Zdr2zWM87wAAAABJRU5ErkJggg==;" vertex="1" parent="134Ek7XrDGWU4xRJH-jC-1">
                    <mxGeometry x="13" y="350" width="417" height="41" as="geometry"/>
                </mxCell>
                <mxCell id="134Ek7XrDGWU4xRJH-jC-13" value="" style="shape=image;verticalLabelPosition=bottom;labelBackgroundColor=#ffffff;verticalAlign=top;aspect=fixed;imageAspect=0;image=data:image/png,iVBORw0KGgoAAAANSUhEUgAAAV8AAAAtCAYAAAAJKGj/AAASlElEQVR4Ae2d+VcTydrH588hNd3V1dMJ22EJCEdZlVUED4gsymZEtkGZERdEvKIoYJBB0SgSEREw4Fyuy7x3mDtz3nn/p+97qpMmDTRJ4EjClfqBU0xXVVfV83zr008/1Tjf/fDDD9jNjz3DDvGzdxvsxtai7e60Kewl7PXfpIHvdjtZAd69g5fbbrf2Fu0FUIQGvk0NCPhGOZIXG+nb3EjCr8Kvu9WAgK+Ar4jGd5l62+0mE+0FmK00IOAr4CvgK+ArNBADDQj4CviKjReDjWcVCYlrhytC3jV8NaeG5rE4/GvFhjVfHFYXbHg5LqP2hHbgvoLQnCpcEzZ4rzM4nAdjfmKDHa4NJvwt/L2TBizhq6oMx5tlTHpsWHlng9ctofYI0yMkA76PXCr474m5DGcHbfA9UpB2QABnfJGhw/dxHF7f2A5frVyG9zFFepTnvJMjxHWxSYUGDpcGtsFXVVUcayNYeC6huZghJVFFTpWEqREKp+oHLo98OXw3IHdKxhuvjKIog8wYfy+ldkbGooCvSDmIlIPQQIw0sB2+8QruvCZoy1Q3nKI6GC6OSaizb4Yvj3yT8hmahm14/1BBSgC+2lEVTQMEM3Nx8L21wTMqoyaQluDRaPe0DYNdFCNPbVjmkfXElrRFAUPPfYI38za8n7Ph0Q0FOUeCaQNHiYJbEwTv3sVhdd6Gx0MKSvL89ZqT4bLHnxbxp0YILpcH+2oFFBMLcfjgC7bR272QUWA8PMKMrx2nmH5GUVRBMfjYhuXlOPimqd5fK6J4PiehMss0Zq4C92sJp7O0DZuKKOdwRTnC38LfWzWwHb7FMmaHFNhVFYl5FDce2LAw74ekKz0IXw4sP9xsePWQoiLfgJ+Ks8MEj3oZcnI1xB9RUdAmYfYxxRGnBj9847DgllFbpiI5R0XjXRt844qeAuD1nU/j8GJQQV6OipQTDD0TNszdYkgMwLH6H3HwDjJkHNGQUshQ3SWjvjgIOyMS5iC+8XozfDfqmiWsWUS+kYyvw/edDa8eS2iuUpGcpcGZr+p5Zd6/fiQObtObQXYPgfcag90p4LtVgOK/BZQOqwa2wVerleDpUqBqCm56bLh8kiFRU9E2TuByBuGr53wzGPo8cRhpMaUgjlG4t0SVOqSXJVRvwNeGofogLLViihfvZJzm9Sconi9LqM001Z+U4X0j4WQAvqm1MqY8BGNDMrrbFZQVqTrYDLAa5Z7gG8H4OnzfEzTnBOdojKmXFRReD0VuYL0/eQi6ivxtD6vQxLoFZIUGNmtgO3zPELzqVaAmUoy/4sBkyKqQ8fTtdvhy0KQ2S1h6KaMoAEtNhy/BpUJrMPkj3y3w5YdfbySUG/Bd2gJfXj8vb8CXj6tlasg5raClR8b9ZzY8uWxxqBYq8j0v4Z+/UGQYqYbAJ2c6/MOMr8N3SULNlr4GgPkaW902DJ7V4KiWMecOHuwJAW4WoLCHsMdh1cA2+KqFMmbvUcSrKiouEyws2jD3UEbfPWlb5KtDMIOh95kN7nZ/9MvBU3c/DsuPKWrKVCRlaciuUtBSF6zvno7D7LCCkgIVyYUKOt02vBlU9LQCj1a7n8bBc0tBbo6G5OMM3YH6JA7nDIaLwxK6mxhyClQ9rXHiCsGqFUhDwbdCxut3BBfLVSQcUZFZouo563Dj62vmOd8Q8OVtEmoleEcVNAzZMHw++GZwWIUm1i0gKzSwWQPb4WtXcHOG4GJW8MDNbDTzp2ZGpJd8TsKSV0ZF4FBMP3C7KeGFNw6+hTjMTsroqNH01IA/8o3DxJCMX175D+SeDFEUHDVFyoUKekcI3ryNg2/OBvdNBbmBAyw+fmqFghvjBG/5wRk/sJuU0WI6VDPmFTLt4FRReVXCqzc2rC7ye1CUGqmOEONHCl++zq4ncfC9lFFm3Ff8wzriwDFGJ+vmPSx+3wzBWNljG3z5RDIbCeY9ElpOMCTGM2QUUjSW+b/zNcC219KA7+06E2yj/Fdme537bvrxh0TJDRte/hSMenn/WDlajHswNpzwg/CDoQFL+PJvffMbZEzwP7JYtGF2XELDMX8kvBsAWbX1w3dzzteq3X/rNQ5dxxENR87K8MxLaAp8BWKsxzC8KMUmFBo43BqwhG8oURgQ2Wv5zcM3S8H9BRsWPRJ6azdHvdxmoWwr6g73ZhT+P1z+jzp89wrtb6Wf2GCHa4MJfwt/76QBAd8o55t3coS4Ljap0MDh0oCAr4CvSIWILxCEBmKgge++//57iB9hA6EBoQGhgehqQMBXPHzEw1doQGggBhoQ8I2B0UWEEd0IQ9hb2PsgakDAV8BXRD1CA0IDMdCAgG8MjH4Qn8JiTiI6FBqIrgYEfAV8RdQjNCA0EAMNfHX4EiKhr4nhYSaxdCghMsY6Vfzfjz/g756d2/GnMCEEHQ0Mq+USZGJ9v6/9tN7N/L722JHcjxA7zjz8A68//Afeld/hmVvA7f5GOOWvZ5+SW18w3Ja+g/8K0THrH3/W9xlTz56iuyEPapT8E4mNDlqb7BMMv52SLe2527lGw/+h5kRIbP0fjfWH0n8o22yt04ou4/aLNbzwrcPdW7jN/1GHrzFBDune8+Hh29mo4sNJOWrw3c38jLbRLA3x3TzLQCQKe1oZXI8/426rNSz3MrdQ4vNvPh/a8whkRzqyq67i7vwn3D7n3CauvYwdrT4kmWK1UUZSFB4a+wHf/fR/KB9E2/9ETkJ+2yi6ziTq+oq1/rltCjsewVWZBSWMdkpvf8IdVy4cimS5Nw40fEOJYL/rInk47PccrO5vFp9R77w0j+n+cksHG212U0YKX+OejtoJeLy3kBNGjEb7g1CSdAW/RQm+WfsQ+XL4Gnb82v437mtVmuFr1O+H//n+i8+/gCtPlnCvvwmZmv/NLtb652umqZVoG3mH8ftXUJRKN/xg2MMoy26voLto5zfSbfA10gb3Cygmmxh+72BYbaA46zAWL2OqR8ElNXjTvBKGjyf9dPf3V/GklPdXsd7BsGLqb0xsJ7jx69da/WkJIzVxLSk4Fu/P25QUUMy0Mqx3qvjSwtCXLkGKcPNH0n+n+fHxFYeMK1UMK+0q/uxgWDwjo1gJzpEmyBhuYPjSoeLPSwyvTlEUm+wVrt6wkVVpFh+RGOIza9Az7UNvuX1DBFJyOVrvzGLy7Rd45t5isK8e6ab5has3w5dQJ07dmsP9n6qQIBFYbT6iNmNwdRYNKX4b0LRKNA144J7/DS8Xf8Xo3W7kBDYPX1O48a3Wbb5GFAmtFQp8LhV/cPvXUpzZ0CdBdSXDSoUEB+HzleCqY/Dk+fVBNIqXnSr+6g5qTNdZG0VeQD+h7+9Pq/3slDDUwLDexfClRcFFk0ZlhwwOx08dKj42K7h7ZnPaYb/9H87+cmYjeh4tYnrx33j5dgl3rl9ETmIwOiNaDk7//BTjc5/xYmEFo/euoyTNnzaJhv+JPQ/V/a8wMT2K+oKkTfs61vo3dEiICmfNTfzj5Vv0u8qQSIP732hz/LoPl8u3Xzfqd4Cvik8cmIkS7ExC02mG9Tqqv6LxnGgk8N2pvzFwKLiZ29xxMZjhy/vlFzGstym4kEoQTwky0ylu5EthXwP4fSPtH2p+zqMUA7kSjmkSGJPQUs3wviQo3poqFasVMlJkAoddQk0BRWNC0Anh6o31W5WG+HjOV8/7rv6Ox8OXcHQDPlk4P/kJo/21yHBo0NLK0PpoDRP9Zbp9CAldz8c04EvUXNSPzGPo4omNnK7l5iNV6FtaRFu2f40pNVdxseEkMpLsUBzZOD20gvGuXP3hEMn4Vus2rnG/1NUwPD8u46hKoMgS8o4pWGmUkW7AU5ZwvVnFRDbB0UIFK9XStvQCyVbwt0XkG+7+vJ6faay3KHClEGiUoK6K4c8aOWBfCVeaGHxVMvJUgsQEGTfPqZtyvvvpf26nUPbn9cUDn+Hur0SCokBLyUNxay8qMozgKQFlQ/MYdJ2CM0EFVZJwpPYB3O72wP7nOV9/2inok6/r/+S2GcxMX0eOKWAJjhU884iF/o15GKWU3orbC/9E1/Hg/ubpQC21BK7JX9FTHLxu9DHKHeC7ORdLEiiWOhRU65FEJPDdub8xcCi4mdtsh6+MIRfDfWcQdkb7SEr+8Iikf6j5EZmgsoBi7CzDsothvVvF/54J5qUTnRTeVobpKgU/5csoc5BNT+9w9aHWYcBXz/kRGUp8JgpcU5ia7kMm909aF0bej6PcdABHjvXDPX8HBRHU87F1+Hafg2viI155riHL9FS3hK/WiturM6hP9guNKE4cb76GvpEZjM2uweNbx+zdRt0G4eYXau28jlAZnp7NUaseuXYpqDG9+cgOihkXjzwpSk3zN+6/I3zD3N8PXxWjpgNlkqHgj/MUTm5fh4yFLgX1UnDTbc357qf/dRuFsD+vdxRfxd3ncxgYuImW82eRl27f0CfRmjG44j9QNR7wOuTeP0SJvv8t4PuV/S/Z81DDI9+nD1CXn7gxN31tgQPnWOl/Qz965DuAuzNvcW1L5MsfHt7V3zH1sB2Zpn1o9DXKyOCbTLHSTlGuG1/GZA9Dp+k1Mr90a9phC3yTKT7w/8uwaXNwEf8Y9sBNwnb4ShhoYxhOD4rbWEwkJR83kv47zY9fb65lWK2laHJKyLYTJOcy/F0rg5rXJxNkp8q4UEgx0czwpkjaVf1OazHD12hDaD1urjxDjT0A3+UxlJmAQ47+vBm+Ier5PTl8Z98voq86D6UDyxjvKw0Z+cbXT+HFzA1k6/pIQOXwGtzDl1FZUoD05AQkNE7Be++8fmiqwzfM+Ma6rEodvt0KegKRvlUbfs2RTrHUwuBrU1BjFUFlUfx9jiLF5DPeL9z9uf+3fs1DnBTrTRQZfP08UOlUUBMCvvo4YfSx07rC+p+Etr9xX0LjkV5Qg5oLN9D/ZBn32gv9/tHh+wqNqdb7y+rhux/+53aOz3fpOd/hq6FzvtHUP7efnvN9wHO+fZY5XyIpsKeXwTX5AT27z/mqWKmWUawR2O0SeutUrJ2S9A3IjXLbxeAplBAvExzNovC2q9tyvh/OUJTZ/f37GthG/w3nE4KmWoalcgmJsgSng2yCE2/Hx7KC74lS/2tfS6oEByVwpsq4VSojbctGMsYyl/yekfTnn7lZzY/355HzaJYETSbISJVxvT4IX17fVa2gL1vGUc3/WlxYpOCvwEYPV2+eq9Xv5s3Ho3glIRtFXR488/QjS4dfNpp++YSH/bVwOlSoqWVoGVvDZP9JsAjq+ZgcvqMdx/yRKitC+zMfrlYlB9IGwchH/9qh+jruzX/EQF1aoP44OrwruFKZDqbEIyW/HhfGVoPwJaHnZ7Vm8zVuv/pqFf/TSHEm0f/az/1/IfDazNsSu4wnFxR0JhBk5ytYa5CRbYKh3iaJ4kOHgq5kCUySkJZANnLEoe7Pxw8JX9n/ZuUtkeCkBGmpFKOtwbTD/vs/jP2lbDTcfojm00VwJtv1tEL2JQ9mJjqQoOsjEeVDv+KZux8l2UlgLB7J+Q2oKU2Nif+JnIz8C2PoqrX42iEG+ufa0b92qAr/tUNh/3tc2UvO90UlhdelYv0Sw2uevzId2DizKN64VPzZyTBfRVGYq2yBL8NYMcVsG7Psb2wmlkLxvI3hP50qPpyleuRk1OkbxAK++nVJQuUJBa/bVKx3qfjUrOBKOon4czQSYX+r+XEoZ2RTzLsY/upk8NVRtOZTfApEvrw+MZniTh3DR36www8cGxVcMF7Jw9Sb12/1uwFff75rHS/5gcjIACoyg6euUkoFWu94MbnwW+DArRFOFoxkwtUbOV9jfPlIJ4bnPKjLkAMHbsHvfJ88e4quulwd7LpviISU6ju47/2MmeU1jD+4hdNN9/AkEPnyNuHGN8bdqeQHYi3lCpb4gVunCl+jgh/T/akdIkvoPccwdczIYUqoqWJYLpdhNz2cOQSrShh87UzX8UojRUngFTHk/cPAl8/ZnkQxfl7F750M/zpH0V6q4EvgO99w+thpzcb1cP7n6wplf17vyG1F14N5TC3+GzOLa3C7h1FzTNXhysfRD9z6pjDq/YgXi7/C7X6Ac0Up/ofxlu98o+3/cOvn8w+nr3D1ofRv+CGSsnxodS9fO6gYyQhu1kgGEm2i+6eJwt7C3kIDB1sDu/7Olz8Zt75WCScfbCcL/wj/CA0cPA1oRVcwtJu/cBPwPXhOFBtL+ERo4NvTwLavHYSTvz0nC58KnwoNHDwNCPjG4F8zEhvh4G0E4RPhk2hrQMBXwHfjlDva4hPjCeAdZg0I+Ar4CvgKDQgNxEADAr4xMPphftqLtYtoV2jArwEBXwFfEfUIDQgNxEAD/w/zhNQ4FOX8MgAAAABJRU5ErkJggg==;" vertex="1" parent="134Ek7XrDGWU4xRJH-jC-1">
                    <mxGeometry x="476" y="290" width="351" height="45" as="geometry"/>
                </mxCell>
                <mxCell id="134Ek7XrDGWU4xRJH-jC-14" value="" style="shape=image;verticalLabelPosition=bottom;labelBackgroundColor=#ffffff;verticalAlign=top;aspect=fixed;imageAspect=0;image=data:image/png,iVBORw0KGgoAAAANSUhEUgAAAWMAAAAuCAYAAAD9c3jnAAASoklEQVR4Ae2d+VcTydrH759Danqpnk7YDktAOMiqgCADHgKyKJsR2QZhRsYN8IobYJBB0SgQEZEl4FyuOvPeYe7Meef9n77vqU46aWI2QBIyUz9wmqS6uqqe51ufevqpQv9RVVWFr7/+et8/5hwz+M/BbXAQm/M6+9cptxm3WaJo4B8cxgcH6mEWo0QRCO8nhxnXQGw0wGEcpwifCzw2Aud25nZOFA1wGHMY7ztFlSji5v3kIE4kDXAYcxhzGB9gzySRJjnva2IsShzGHMYcxhzGXAPHQAMHhrFqVdE+lYR/b5mw407C9qoJr6ZFNJ5Wj90pC9WqwD5jgus6hcV6PPrHo5XEiFa4n7ifYqWBsDBWFIpT7SJmnSZsvTPB5RDQeIJqq6gO48d2Bez31CKK86MmuB/LyDomwNNPO2gwfpKE1zc+h7FaLcL1REJ2jPscKwfzdjhMuAYSQwMhYawoCk52Eay+ENBeQZGRqqCwTsDcAwlWxQNgFhkzGPug942INy4R5TEGm97+Qa5qg4g1DmP+mnoMXlM5NBMDmkflp9AwTpZx5zVBV67im6iKheLylIAm814Ys8g4rYSibcKEzUcyMrwwVgsUtN0iWFhOgvutCc5JETZvGoNFq/3zJoz2SXjwzIQNFnnPBKQ5SikG7hO8WTFhc9mExzdkFJ7wpxkslTJuzxC8e5eE7RUTnozLqCz2lKtWiqtOTxrFk0ohuFrtr6uWSphZTcJ7t/8e7b6XIkr1xSRC++opCfPPJZTXSBh9YsLGRhLc85JWXy2X8GJZQG2eoc0iGY7XAs7lqT6bHpVj+XP/3hOb+z/x/B8axhUilsZlmBUFqcUSbjw0YXXFA017th/GDGAe2Jmw+EhCTYkOQwXnJwgeD1IUFqlIPqGgtEvA0hMJJ6wqPDBOwqpDRGOVgvRCBa13TXBPy1rKgJX3PkvCy1EZxYUKMk5TDMyYsHybItULy/p/JsE1SpFzQkVGGUV9n4jmCj/89EiZgfnG670w9pW1C9gJEhlH074G43cmLD4R0F6nID1PhbVE0fLSrH7zgyQ4DG8O+QMErh8ozFYOYw6LxIMF99nR+iwkjNVGAc4+GYoq46bThKtnKVJVBV3TBHarH8ZazjiHYtiZhAcdhpTFSQmOgKhTg/aGgHofjE0Yb/bDU62Q8PKdiHOs/LSEFxsCGnMN5WdFuN4IOOuFcWajiDknwdS4iP5uGVXligY6HbT69UAwjqJ9DcabBO2F/j7qbWrXGgkup4Qi73i/cxL0lXvu5cI+WmFz+3L7JpoGQsO4gWBxUIaSKmF6kQGUIq9GxLO3n8OYgSezXcD6KxHlXniqGowJrpQFB5UnMg6AMdtMeyOgWofxegCMWfmK6IMxa1fNVVF4TkbHgIj7z014ejXIJl24yPiigH/9KCFHT014j7ppi0GE9jUYrwuwBdTVgczG2OkwYfS8Cku9iGWHf6Mw0YTC+8vhxjVwtBoICWOlTMTSPQnJioKaqwSrayYsPxIxfE/4LDLWoJhDMfjcBEe3JzpmIGq6n4SNJxJsVQrS8lTk18noaPKX988nYWlCRmWpgvQyGb0OE96MyloagkWz/c+S4Lwto6hQRfopin5veRqDdQ7F5QkB/W0UhaWKlgY5PUSwHQys4WBcI+L1O4LL1QpSTijIrVS0nHek9rUxs5xxGBize1IaBbgmZbSMmzBx0f/mwIV9tMLm9uX2TTQNhIaxWcbNBYLLef4NPOPgjEfb9Egw/YKAdZeIGu8mm7aBd1PAS1cS3KtJWJoV0WNTtVSCJzJOwsy4iB8XPRt8T8cllBYYIukyGYMPCN68TYJ72QTHTRlF3g0x1n5mjYwb0wRv2UYc2wCcFdFh2KTT+xU2TWFVUHtNwOIbE7bX2DMknNFTI2HajxbGbJx9T5PgfiWiSn9ujplv4PHTC1wDXAN7NBASxgy8ua0EK04BHacpUpMpcsoktFZ5zhnroDvoVYfxWJMBvnH6a7iDjiGaemzRqLxhwqvv/FExq2dc2PjvPIrjGuAaCAtjdta4pEXEDPujjzUTlqYFtJz0RMrRgCjcPR4Y780Zh7s/0coYhC0nVJw4L8K5IqDNe8pEHweffHzycQ1wDRg1EBbGxhsDf9ehctDrXx7GeTLur5qw5hQw2Lg3KmY2C7Qn/8wnJtfA31sDcYPxQSH+V6nHJ97fe+Jx/3P/B2qAwzhOeepAR/DPfHJyDfy9NcBhzGHMUyZ8V59r4BhoQIPxV199Bf7DbcA1wDXANRA/DXAY84WIL8RcA1wDx0ADHMbHwAk8GolfNMJtz21/XDTAYcxhzKMirgGugWOgAQ7jY+CE47Iy837wKJFrIH4a4DDmMOZREdcA18Ax0MCRwZgQAcNtFI9ySVBHEyJiqlfB/337Nf4cCH0fW6kJIehpodiuFiCS4M/70iv6fvr3pduO5nmE1OPa5mtczPLbg1Tfg3OmF6kxsBEhZehZ+g2v3/8XS+5PmHv+DP0txVBi0HY09jmO9+SfpvjlGzHofNhvfwkxo+GRx/6urV/hXF7F2EgrrKJfD/t95n7uj7f/463//dhKLb+KsZc7eOnehWOwLKT/4wZjfTAM2oMXI8O4t1XB+7NizGC8n/7p98byGm8xeiajG93FBKIlG/l113B35SPGLlhDii2W9om2LZIuYbtVRFoMFpGjgPHN8xREkGDOqoL9ySfc7cyOif1j7X8ipqGkaxJ9Dana+OKtf6avsp7HsNfmQY6gnTNjH3HHXgSLLIT1TULAONqJdRT3RbNYHEW7kZ4ZbzEaJ6PeV0vjDJyu2yiMIE79/uNwJdkyfokRjPOOIDJmMNbtaL2ygvmRat9n/fujuMbK/2z+JZdcwtDTddwbaUOu6on8461/ZlMpsxZdD95h+v4QyjOlkHavGttCf3nkN5aQMNbTDPdLJcy2UfzaQ7HdIuG8RTeGiLkBGVcUfyPFlRQfznro76mv4OkZVl/Bbg/FlqG+LpBQsGPf/9DpSWPoqYwf0vxtsfrsnspSCQudFLu9Cn7uoBjOFiBECYNo6ofqH2tftogYqqPY6lbwew/FWoOICtnfRylFxEQLxc89Cn6/QrH4jYQKg70iles2CnaNRoxibisGHq9hfu0/ePV2HXeuX0Zhqn91Jmohzn3/DNPLn/BydQuT966jMsv/Gk0ye3F/fggFRZfwrWMdzzd/hXNuCCcIQbDJSJR2jG4voSXDYwMpqxZtt5xwrPyCV2s/YfJuPwq9k4mNSUivRuedJcy+/RnO5bcYHW5GtsF+wcZt/I7IAjprZLjtCn5j9m+U0ODTJ0F9LcVWjQCL1l8B9iYKZ7FHH0SV8KpXwR/9fo1pOuuSUOzVT/jne9Jw31sFjLdQ7PZR/Nwh47JBo6JFBIPlxx4FH9pl3G3Ym6Y4nP89aQpPZEyRnGvDwLwbg9VmHxQi2f8w+oiF/4m5GPUji5iZn0RzadqeeR1v/es6JESB1XYT/3z1FiP2KqRK/vmv33PquhtXqz//Xi/XrxFgrOAjA2iqADMV0HaOYrdJ0l7pWE41GhiHqq93IBzsjPfcsVMYYczqlZRT7HbJuJRJkCwR5GZLuFEiRHxtYM+Ntn64/lkLJNwqEnBSFUCpgI56is1KP+xsdQq2a0RkiAQWswBbqYTWFL9TIpXr4w92jUaMFbc+wTFSixRZhppRjIrOQdTk6ItlCqrGVzBq/wbWFAWSnIYTjQ/hcHT7Xtk1GK+9x2PHHdSXWqHICpLTUrRUUdDJSOowvL6GrnzPGDNs13C55Sxy0syQLfk4N76F6b4iDRaE5OHi7EdMjjQix6JCzapC5+MdzIxURe2/JhvFi1MiChQCWRRQfFLGVquIbB2mooDr7Qpm8gkKymRs1Qu+sek2Jfky/gwSGTO/h3s+K2d7IrsdMuwZBKpE0FRH8btN1PrPyofaKNx1IooVgtQUETcvKHtyxofzvz9nzPL2ru1f8WTiCgq8ixEbXzj7s/LD6CMW/k/vWsDC/HUUGgIYn9+i2DM5zPhYO+H0r/dDvwrZnRhb/Rf6TvnnN0sfqZmVsM/+hIEK//d6ncBrBBjvzeWSFAnrPTLqtUgjGhiHrq93JBzsjPd8DmMR43aK+1Y//PT7o7myxSSa+uH6R0SC2lIJU+cpNuwUu/0K/rfBn9dOtUpwdVLM18n4rkRElYXsWd0jlYcbByHn8N3GCtqsfieTs/fxynEFyV4YWSqu4e6LZdy6dRMdF8+jONvsa5+o7Rjd8mwAscms/7g2H6FShxmLjN3PUG+Y4Hqfgk5GtRNj2wtoTvf0ichWnGr/AcMPFjC1tAOnexdLd1u1PpCsPjzYnEa1YcOJnByBY+UOSr3t620FuxJJhHNgb1SrRbZ9MmyG+qJFwoKdRaYSzgSJWkLCOMLzPTBWMGnYoCY5Mn67KMHK5odFxGqfjGbB75/AnPHh/G+IjIkIOTkXpfY5zM0PI1f3Xxj7M5seRh+x8L9gLoaNRcbPHqKpJNWnXdb3eOtf16QnMr6Fuwtv8UNAZMwWE7ZIzj3qRq5B53rdwOv+YJwuYatbQrUXxrMDFL2G186SM4FpigAYp0t4z/4XZ8NkYaL+NuIGnoDPYSzgVhfFRLZf7IGDC/eZtRtN/VD9Y9+3N1JsN0poswrINxOkF1H82ShCMo5PJMjPFHGpTMJMO8WbcmFf5aHGQMhp9Lh20F/uX4xS2p1YvNu6Z5OTSMnILrXBdukGRp5u4F53mSey1WC8iNbM0PbTIoPNSR+cjX0JNhmTm+fwcuEG8jV9pKB2YgeOiauorSxFdnoKUlrn4Lp30dM+g/HGFKoMgCQF3+8Pxv0yBoIsFMZ+WrIlrHdQuLtk2IJFWHkS/rwgIcPgM1Zfg32Y5zP/B54WIlYJu20Sctj4WeDSK8MWBsZaOxH0YRyL8Xf9NIUxZ0ykZtzceg6bmaWRwttff9ZB9REr/zM7J5fYtZzxxDVjzji++mf203LGD1nOeDhozpgIMszZVbDPvsfA4XPGCrbqRVSoBGazgMEmBTvfCNrxJWakMTuFs0xAskhQkCfB1a18ljN+3yChyuypP9xCffV9YiAEbY0U69UCUkUBVgvZAyt2H2srGIxPn/G8JnZkCrBIBNZMEbfPiMgKmFh6W8Yre2Y09dmxumD9Y/VZZD2ZJ0AVCXIyRVxv9sOYlffVyxjOF1Ggel6jy8pl/OGd+JHKjX0N9jshEoqHNzE/2YeCFPYftDbgqvMDrttSPGkAIR8tY4/Qfq4c1nSzlobIv+LEwkwPUjRYpqJ6/Cc8d4ygMj8NlCYjvaQFtjOZvpxjtDDWTlPUX8e9lQ+41ZTlTUOcQo9rC0O12aByMjJKmnFpatsPY5KPth8/4tFII6wWBUpmFTqmdjA7chY0Sv811yv4n1YJDameNAHz/yVvGobZjJhFPL0kozeFIL9Exk6LiHwDHLV70iS875HRly6ACgKyUogvxxzu+cx/YWEset68XJUCrBJBVqaEyU5/muLw/g+IjFPyUd7nxHPnCPI0/0aw/yH1YYRxLPxPxHSUXJpCX6N+miK++mfa0U5T1EU+TVE2somhL5EzflkrwWVXsHuF4jXLfxk2WKx5Et7YFfzeS7FSJ6GsSA6AMcVUhYSlLhq0vg4ZmiHhRRfFf3sVvD8vaZGVXqZNmCAw1r4XBNSelvG6S8Fun4KP7TKGssmeyND4nMDfSZT1g/WPQTonX8KKneKPXgp3k4TOEgkfvZExK09Nl3CnieID2yhiG5itMi7pr/ARygP7GuwzUUvRNLaIH1d/gXNlFbcHapHqhQ2b7JaiTvQ9XMHc2n+wsLYDh2MCtpOKH7ZsA294DpOuD3i59hMcjoe4UJ7hex2MDGP/OeOnz5+hr6nIB1LWfkb9Hdx3fcLCxg6mH97GubZ7eOqNjNl4hIwadN5xYZb1X9vAa4WVho7UA23ANtg6qmWssw28XgXuVhnfZntSQUQUMHiBYu6kniMXYKuj2KgWYTbAnvWzrpLC3U01HW+1Sqj0vlKGfX4EGLO+mtMkTF9U8Gsvxb8vSOg+I+Nn7znjSPoIHGvgZz0y9uSLd/GKbcA+uIWaXM+ufiT7H1YfHhjH2f9x1H+gP8J9rh7f/hKnKRQ8yIl+coTrEC+L359Zcttz23MNxE8Dhz5nzFbOwNcw7tD4OZTbntueayAxNaCWD2H8MH+Bx2GcmI7nE5b7jWsgMTUQ8jQFd2hiOpT7jfuNayAxNcBhfAz+tSY+eRJz8nC/cb99SQ1wGHMY+05XfElh8WdxUHEN7E8DHMYcxhzGXANcA8dAAxzGx8AJPILYXwTB7cXt9VfUAIcxhzGPirgGuAaOgQY4jI+BE/6KqzwfE49euQb2p4H/BxJT5hoOshv3AAAAAElFTkSuQmCC;" vertex="1" parent="134Ek7XrDGWU4xRJH-jC-1">
                    <mxGeometry x="476" y="347.5" width="355" height="46" as="geometry"/>
                </mxCell>
                <mxCell id="134Ek7XrDGWU4xRJH-jC-15" value="" style="endArrow=classic;html=1;exitX=0.916;exitY=-0.044;exitDx=0;exitDy=0;exitPerimeter=0;" edge="1" parent="134Ek7XrDGWU4xRJH-jC-1" source="134Ek7XrDGWU4xRJH-jC-11">
                    <mxGeometry width="50" height="50" relative="1" as="geometry">
                        <mxPoint x="270" y="270" as="sourcePoint"/>
                        <mxPoint x="790" y="288" as="targetPoint"/>
                        <Array as="points">
                            <mxPoint x="395" y="250"/>
                            <mxPoint x="790" y="250"/>
                        </Array>
                    </mxGeometry>
                </mxCell>
                <mxCell id="134Ek7XrDGWU4xRJH-jC-17" value="" style="endArrow=classic;html=1;exitX=0.897;exitY=1.049;exitDx=0;exitDy=0;exitPerimeter=0;entryX=0.893;entryY=1.098;entryDx=0;entryDy=0;entryPerimeter=0;" edge="1" parent="134Ek7XrDGWU4xRJH-jC-1" source="134Ek7XrDGWU4xRJH-jC-12" target="134Ek7XrDGWU4xRJH-jC-14">
                    <mxGeometry width="50" height="50" relative="1" as="geometry">
                        <mxPoint x="380.1400000000001" y="458.02" as="sourcePoint"/>
                        <mxPoint x="775" y="458" as="targetPoint"/>
                        <Array as="points">
                            <mxPoint x="387" y="420"/>
                            <mxPoint x="793" y="420"/>
                        </Array>
                    </mxGeometry>
                </mxCell>
                <mxCell id="134Ek7XrDGWU4xRJH-jC-18" value="" style="rounded=0;whiteSpace=wrap;html=1;fillColor=none;strokeColor=#FF3333;strokeWidth=2;" vertex="1" parent="134Ek7XrDGWU4xRJH-jC-1">
                    <mxGeometry x="370" y="300" width="50" height="30" as="geometry"/>
                </mxCell>
                <mxCell id="134Ek7XrDGWU4xRJH-jC-19" value="" style="rounded=0;whiteSpace=wrap;html=1;fillColor=none;strokeColor=#FF3333;strokeWidth=2;" vertex="1" parent="134Ek7XrDGWU4xRJH-jC-1">
                    <mxGeometry x="770" y="363.5" width="50" height="30" as="geometry"/>
                </mxCell>
                <mxCell id="134Ek7XrDGWU4xRJH-jC-20" value="" style="rounded=0;whiteSpace=wrap;html=1;fillColor=none;strokeColor=#FF3333;strokeWidth=2;" vertex="1" parent="134Ek7XrDGWU4xRJH-jC-1">
                    <mxGeometry x="770" y="305" width="50" height="30" as="geometry"/>
                </mxCell>
                <mxCell id="134Ek7XrDGWU4xRJH-jC-21" value="" style="rounded=0;whiteSpace=wrap;html=1;fillColor=none;strokeColor=#FF3333;strokeWidth=2;" vertex="1" parent="134Ek7XrDGWU4xRJH-jC-1">
                    <mxGeometry x="370" y="363.5" width="50" height="30" as="geometry"/>
                </mxCell>
            </root>
        </mxGraphModel>
    </diagram>
</mxfile>